<svg id="svg" version="1.1" xmlns="http://www.w3.org/2000/svg" xmlns:xlink="http://www.w3.org/1999/xlink" width="400" height="400" viewBox="0, 0, 400,400"><g id="svgg"><path id="path0" d="M220.999 59.400 C 220.449 60.933,218.250 65.408,217.527 66.462 C 217.127 67.046,216.800 67.811,216.800 68.162 C 216.800 68.513,216.651 68.800,216.469 68.800 C 215.981 68.800,215.216 72.469,214.801 76.800 C 214.375 81.253,212.790 88.105,211.632 90.511 C 210.748 92.345,209.389 98.981,208.987 103.420 C 208.695 106.656,207.177 112.133,205.777 115.006 C 205.240 116.109,204.800 117.596,204.800 118.310 C 204.800 119.633,203.925 125.621,203.151 129.600 C 202.674 132.051,201.635 134.800,201.186 134.800 C 201.025 134.800,200.797 135.167,200.680 135.615 L 200.467 136.429 199.134 135.616 C 198.400 135.169,197.251 134.802,196.580 134.801 C 194.975 134.800,192.226 132.985,191.343 131.345 C 190.941 130.600,189.852 129.611,188.806 129.042 C 187.647 128.411,186.644 127.460,186.081 126.458 C 185.283 125.038,183.464 123.555,181.500 122.723 C 181.115 122.559,180.800 122.212,180.800 121.951 C 180.800 121.057,178.761 118.800,177.953 118.800 C 176.303 118.800,173.641 116.639,173.566 115.238 C 173.547 114.887,173.342 115.140,173.110 115.800 C 172.848 116.547,172.719 120.942,172.769 127.433 L 172.850 137.867 171.525 138.870 C 168.890 140.865,164.158 140.140,159.457 137.021 C 157.168 135.502,155.552 134.800,154.342 134.800 C 153.013 134.800,148.258 132.788,147.400 131.863 C 145.654 129.979,137.719 128.739,136.086 130.094 C 135.558 130.533,135.732 132.352,136.345 132.796 C 137.399 133.560,140.800 145.513,140.800 148.455 C 140.800 148.941,141.497 150.703,142.348 152.370 C 143.928 155.463,144.329 156.823,145.426 162.800 C 146.301 167.569,146.737 168.800,147.551 168.800 C 147.930 168.800,148.411 168.953,148.620 169.140 C 150.439 170.766,149.234 170.735,213.366 170.840 L 274.467 170.940 275.634 169.691 C 276.275 169.005,276.800 168.101,276.800 167.682 C 276.800 166.730,278.743 163.796,279.919 162.972 C 280.403 162.632,280.800 162.027,280.800 161.627 C 280.800 161.227,281.250 159.882,281.800 158.638 C 282.350 157.395,282.800 156.086,282.800 155.729 C 282.800 155.372,283.461 154.439,284.269 153.654 C 285.268 152.684,286.029 151.368,286.647 149.539 C 287.990 145.572,289.117 143.273,289.935 142.835 C 290.708 142.421,292.398 138.638,293.213 135.494 C 293.536 134.250,294.151 133.199,294.985 132.466 C 298.230 129.618,296.736 128.653,290.907 129.831 C 290.416 129.930,289.394 130.556,288.636 131.222 C 286.916 132.732,284.146 134.222,281.969 134.808 C 280.972 135.077,279.546 135.966,278.411 137.028 C 277.369 138.003,276.292 138.800,276.017 138.800 C 275.741 138.800,274.659 139.230,273.612 139.756 C 272.565 140.282,271.152 140.835,270.472 140.984 C 269.792 141.133,269.133 141.558,269.006 141.928 C 267.993 144.882,262.878 145.758,260.503 143.383 L 259.087 141.967 259.343 137.683 C 260.284 121.961,260.090 112.000,258.843 112.000 C 258.446 112.000,256.800 114.962,256.800 115.676 C 256.800 116.332,254.532 118.568,253.500 118.930 C 253.115 119.065,252.800 119.469,252.800 119.828 C 252.800 120.840,250.763 124.338,249.114 126.159 C 247.576 127.858,247.342 128.248,246.154 131.100 C 245.765 132.035,245.322 132.800,245.170 132.800 C 245.018 132.800,244.799 133.160,244.684 133.599 C 244.226 135.350,240.643 135.305,239.033 133.528 C 237.694 132.050,236.800 130.492,236.800 129.638 C 236.800 129.203,236.651 128.755,236.469 128.643 C 235.675 128.152,233.712 118.394,232.802 110.421 C 232.612 108.748,232.096 106.664,231.658 105.790 C 230.612 103.706,228.795 96.982,228.795 95.200 C 228.796 93.973,227.762 87.249,226.951 83.200 C 226.797 82.430,226.349 81.170,225.957 80.400 C 224.899 78.324,223.169 70.366,222.783 65.800 C 222.405 61.319,221.489 58.034,220.999 59.400 M182.165 183.524 C 181.516 184.068,181.277 184.862,181.089 187.110 C 180.821 190.303,181.125 190.776,183.474 190.822 C 186.103 190.874,187.093 194.000,187.172 202.493 C 187.187 204.193,187.411 206.814,187.668 208.316 C 188.042 210.498,188.029 211.483,187.600 213.223 C 186.800 216.470,186.975 221.104,187.939 222.158 C 188.362 222.621,188.831 223.405,188.981 223.900 C 189.131 224.395,189.424 224.800,189.632 224.800 C 190.128 224.800,191.920 228.875,192.440 231.185 C 193.772 237.093,194.433 238.800,195.390 238.800 C 196.034 238.800,198.000 241.204,198.000 241.992 C 198.000 244.019,200.508 244.640,204.000 243.476 C 204.770 243.220,206.660 243.008,208.200 243.005 L 211.000 243.000 211.000 239.332 C 211.000 234.994,211.098 235.148,208.661 235.668 C 205.511 236.340,200.179 235.962,199.242 235.000 C 196.929 232.626,195.948 222.800,198.025 222.800 C 198.216 222.800,198.556 222.455,198.782 222.033 C 199.194 221.264,199.032 221.002,195.681 217.000 C 194.527 215.623,193.175 210.764,192.786 206.600 C 192.580 204.400,192.049 200.908,191.606 198.839 C 190.744 194.819,190.544 188.585,191.188 185.808 C 191.780 183.257,191.080 182.797,186.638 182.813 C 183.777 182.824,182.822 182.976,182.165 183.524 M248.800 183.141 C 246.290 183.685,245.824 184.117,246.796 184.996 C 247.635 185.756,258.747 185.274,260.350 184.409 C 261.981 183.529,252.043 182.437,248.800 183.141 M238.800 188.364 C 236.672 188.668,236.000 189.027,236.000 189.862 C 236.000 191.104,234.675 192.725,233.462 192.968 C 232.195 193.221,230.800 194.244,230.800 194.920 C 230.800 195.706,228.608 198.759,227.770 199.141 C 226.897 199.539,224.800 204.077,224.800 205.569 C 224.800 205.987,224.471 207.385,224.069 208.676 C 223.364 210.942,223.364 211.221,224.056 216.811 C 224.450 219.995,224.779 223.461,224.786 224.514 C 224.800 226.483,225.554 228.118,226.944 229.200 C 228.351 230.295,230.207 232.393,231.044 233.835 C 232.378 236.136,234.494 233.419,233.434 230.767 C 233.085 229.896,232.800 228.762,232.800 228.246 C 232.800 227.730,232.436 226.845,231.990 226.278 C 230.286 224.111,229.098 219.366,228.903 213.950 L 228.722 208.900 230.761 206.763 C 231.883 205.587,232.797 204.439,232.793 204.213 C 232.761 202.171,235.129 196.861,236.512 195.872 C 237.343 195.277,238.198 194.298,238.411 193.696 C 239.096 191.764,239.447 191.414,241.442 190.674 C 245.990 188.986,244.369 187.569,238.800 188.364 M178.561 192.700 C 177.974 196.089,178.666 197.793,179.766 195.666 C 180.575 194.101,180.577 192.235,179.771 191.429 C 178.916 190.573,178.933 190.555,178.561 192.700 M268.542 193.948 C 268.212 194.822,268.240 195.409,268.659 196.404 L 269.209 197.712 270.004 196.795 C 270.919 195.740,271.008 194.508,270.243 193.500 C 269.491 192.509,269.040 192.628,268.542 193.948 M258.226 199.571 C 257.438 200.442,258.553 201.783,259.600 201.223 C 259.930 201.047,260.920 200.765,261.800 200.598 C 263.290 200.313,263.331 200.271,262.400 199.977 C 258.791 198.841,258.880 198.849,258.226 199.571 M173.037 204.042 C 172.922 204.569,172.773 206.530,172.705 208.400 C 172.519 213.514,171.687 214.579,167.409 215.185 C 161.435 216.031,161.412 216.036,162.028 216.426 C 162.342 216.625,163.079 216.791,163.664 216.794 C 165.400 216.804,166.633 218.655,166.915 221.670 C 167.046 223.076,167.370 224.760,167.634 225.413 L 168.115 226.600 168.486 225.200 C 169.965 219.619,170.496 218.781,173.388 217.457 C 175.482 216.498,175.609 216.364,175.177 215.557 C 174.922 215.080,174.590 212.286,174.439 209.348 C 174.176 204.201,173.531 201.762,173.037 204.042 M204.510 215.861 C 204.145 216.009,204.188 216.315,204.678 217.063 L 205.336 218.067 205.833 217.139 C 206.550 215.798,205.994 215.261,204.510 215.861 M156.557 220.003 C 155.876 220.684,152.267 221.434,151.000 221.157 C 150.340 221.013,147.775 220.873,145.300 220.847 L 140.800 220.800 140.806 222.300 C 140.815 224.452,141.086 224.661,144.185 224.903 C 148.101 225.210,149.160 226.716,147.338 229.389 C 147.042 229.823,146.800 230.768,146.800 231.489 C 146.800 232.924,146.390 232.800,151.682 232.971 C 152.378 232.994,152.626 232.702,152.857 231.593 C 153.017 230.819,153.520 229.319,153.974 228.259 C 154.429 227.200,154.800 226.008,154.800 225.610 C 154.800 225.174,155.193 224.788,155.788 224.639 C 156.965 224.343,158.800 222.471,158.800 221.566 C 158.800 220.388,157.251 219.309,156.557 220.003 M268.665 225.928 C 267.888 226.787,267.821 227.902,268.452 229.474 C 268.701 230.093,268.880 232.175,268.850 234.100 C 268.818 236.212,268.956 237.600,269.198 237.600 C 269.427 237.600,269.603 236.437,269.606 234.900 C 269.609 233.415,269.871 231.480,270.188 230.600 C 271.365 227.335,270.312 224.108,268.665 225.928 M135.448 229.391 C 134.201 233.744,135.176 238.758,137.099 237.882 C 138.340 237.317,138.310 230.509,137.056 228.100 C 136.199 226.454,136.316 226.360,135.448 229.391 M161.890 230.403 C 161.512 230.845,161.043 231.916,160.848 232.783 C 160.464 234.493,158.911 236.742,158.089 236.778 C 157.809 236.790,156.786 237.593,155.817 238.562 C 154.784 239.595,153.505 240.443,152.727 240.611 C 150.869 241.012,148.235 242.404,148.652 242.765 C 149.399 243.409,152.418 244.000,154.965 244.000 C 157.800 244.000,157.961 243.909,160.195 241.055 C 160.632 240.496,161.395 239.937,161.890 239.813 C 163.885 239.312,165.896 232.522,164.624 230.581 C 163.845 229.391,162.814 229.324,161.890 230.403 M236.436 236.858 L 235.472 237.221 236.319 238.011 C 237.386 239.004,237.862 239.006,238.391 238.017 C 238.942 236.987,237.835 236.331,236.436 236.858 M241.878 242.256 C 241.307 242.827,242.156 243.200,244.024 243.200 C 246.072 243.200,246.671 242.673,245.100 242.252 C 243.911 241.934,242.198 241.936,241.878 242.256 " stroke="none" fill="#e7e7ea" fill-rule="evenodd"></path><path id="path1" d="M219.900 56.543 C 219.295 57.500,218.800 58.428,218.800 58.604 C 218.800 58.780,218.393 59.481,217.896 60.162 C 215.129 63.952,214.839 64.932,213.447 75.207 C 212.604 81.420,212.303 82.666,210.792 86.207 C 209.455 89.339,209.009 90.976,208.725 93.800 C 208.383 97.207,207.618 102.153,206.857 105.884 C 206.668 106.810,206.210 108.030,205.840 108.595 C 204.287 110.965,202.808 117.719,202.803 122.469 C 202.801 124.377,202.458 126.143,201.600 128.666 C 200.940 130.606,200.400 132.240,200.400 132.297 C 200.400 132.354,199.081 132.400,197.470 132.400 C 194.363 132.400,193.624 132.003,192.436 129.700 C 192.181 129.205,191.723 128.800,191.419 128.800 C 191.115 128.800,190.807 128.665,190.733 128.500 C 190.660 128.335,189.934 127.702,189.119 127.094 C 188.305 126.486,187.331 125.468,186.955 124.832 C 186.580 124.196,185.626 123.308,184.836 122.859 C 184.046 122.409,182.559 121.080,181.532 119.905 C 180.504 118.730,179.154 117.520,178.532 117.215 C 177.909 116.910,176.533 115.747,175.473 114.630 L 173.547 112.600 172.399 113.954 C 170.879 115.748,170.617 118.329,170.917 128.562 L 171.151 136.525 169.933 137.662 C 168.442 139.055,167.911 139.071,165.277 137.800 C 164.137 137.250,163.066 136.800,162.898 136.800 C 162.730 136.800,162.144 136.392,161.596 135.894 C 160.508 134.904,154.789 132.788,153.222 132.795 C 152.288 132.800,149.902 131.415,148.208 129.885 C 147.326 129.088,147.255 129.068,142.200 128.187 C 140.220 127.842,138.078 127.389,137.441 127.180 C 134.169 126.109,132.912 133.678,135.803 137.043 C 137.001 138.436,138.346 142.764,138.783 146.628 C 139.270 150.934,139.473 151.639,141.094 154.695 C 142.646 157.619,143.685 161.067,144.427 165.751 C 145.558 172.892,141.121 172.355,201.133 172.606 C 234.585 172.746,252.975 172.973,257.000 173.296 C 267.399 174.131,273.779 173.701,275.747 172.033 C 276.796 171.144,278.800 168.167,278.800 167.498 C 278.800 167.191,279.253 166.514,279.806 165.994 C 281.082 164.796,282.800 161.885,282.800 160.923 C 282.800 159.946,285.076 155.313,285.753 154.914 C 286.480 154.486,288.800 149.623,288.800 148.527 C 288.800 148.041,289.672 146.491,290.737 145.083 C 291.803 143.675,292.779 142.181,292.906 141.762 C 293.977 138.246,295.294 135.458,296.757 133.607 C 298.436 131.483,298.481 131.351,298.237 129.274 C 297.785 125.429,296.042 123.548,295.040 125.822 C 294.686 126.625,293.706 127.118,289.100 128.812 C 287.835 129.277,286.800 129.794,286.800 129.961 C 286.800 130.354,283.032 132.800,282.428 132.800 C 281.624 132.800,277.139 135.295,276.920 135.863 C 276.705 136.425,271.944 138.800,271.032 138.800 C 270.300 138.800,267.297 140.884,266.604 141.873 C 265.309 143.721,261.895 143.113,261.348 140.936 C 261.203 140.359,261.203 134.287,261.346 127.443 C 261.580 116.327,261.533 114.705,260.904 112.239 C 259.708 107.548,258.420 107.610,256.028 112.476 C 255.129 114.304,253.669 116.513,252.783 117.384 C 251.898 118.255,251.064 119.425,250.930 119.984 C 250.645 121.176,248.104 124.800,247.553 124.800 C 247.345 124.800,247.059 125.115,246.917 125.500 C 246.775 125.885,246.240 126.871,245.729 127.692 C 245.218 128.513,244.799 129.503,244.798 129.892 C 244.788 133.438,241.502 133.275,239.766 129.643 C 239.176 128.409,238.261 126.500,237.734 125.400 C 236.369 122.558,234.800 115.935,234.800 113.022 C 234.800 108.948,233.554 103.153,231.956 99.800 C 230.761 97.291,230.098 94.204,229.413 87.970 C 228.725 81.703,227.798 77.078,227.186 76.867 C 226.974 76.793,226.800 76.334,226.800 75.847 C 226.800 75.359,226.642 74.789,226.449 74.580 C 225.734 73.805,224.848 70.077,224.410 66.000 C 223.275 55.422,222.128 53.016,219.900 56.543 M222.783 65.800 C 223.169 70.366,224.899 78.324,225.957 80.400 C 226.349 81.170,226.797 82.430,226.951 83.200 C 227.762 87.249,228.796 93.973,228.795 95.200 C 228.795 96.982,230.612 103.706,231.658 105.790 C 232.096 106.664,232.612 108.748,232.802 110.421 C 233.712 118.394,235.675 128.152,236.469 128.643 C 236.651 128.755,236.800 129.203,236.800 129.638 C 236.800 130.492,237.694 132.050,239.033 133.528 C 240.643 135.305,244.226 135.350,244.684 133.599 C 244.799 133.160,245.018 132.800,245.170 132.800 C 245.322 132.800,245.765 132.035,246.154 131.100 C 247.342 128.248,247.576 127.858,249.114 126.159 C 250.763 124.338,252.800 120.840,252.800 119.828 C 252.800 119.469,253.115 119.065,253.500 118.930 C 254.532 118.568,256.800 116.332,256.800 115.676 C 256.800 114.962,258.446 112.000,258.843 112.000 C 260.090 112.000,260.284 121.961,259.343 137.683 L 259.087 141.967 260.503 143.383 C 262.878 145.758,267.993 144.882,269.006 141.928 C 269.133 141.558,269.792 141.133,270.472 140.984 C 271.152 140.835,272.565 140.282,273.612 139.756 C 274.659 139.230,275.741 138.800,276.017 138.800 C 276.292 138.800,277.369 138.003,278.411 137.028 C 279.546 135.966,280.972 135.077,281.969 134.808 C 284.146 134.222,286.916 132.732,288.636 131.222 C 289.394 130.556,290.416 129.930,290.907 129.831 C 296.736 128.653,298.230 129.618,294.985 132.466 C 294.151 133.199,293.536 134.250,293.213 135.494 C 292.398 138.638,290.708 142.421,289.935 142.835 C 289.117 143.273,287.990 145.572,286.647 149.539 C 286.029 151.368,285.268 152.684,284.269 153.654 C 283.461 154.439,282.800 155.372,282.800 155.729 C 282.800 156.086,282.350 157.395,281.800 158.638 C 281.250 159.882,280.800 161.227,280.800 161.627 C 280.800 162.027,280.403 162.632,279.919 162.972 C 278.743 163.796,276.800 166.730,276.800 167.682 C 276.800 168.101,276.275 169.005,275.634 169.691 L 274.467 170.940 213.366 170.840 C 149.234 170.735,150.439 170.766,148.620 169.140 C 148.411 168.953,147.930 168.800,147.551 168.800 C 146.737 168.800,146.301 167.569,145.426 162.800 C 144.329 156.823,143.928 155.463,142.348 152.370 C 141.497 150.703,140.800 148.941,140.800 148.455 C 140.800 145.513,137.399 133.560,136.345 132.796 C 135.732 132.352,135.558 130.533,136.086 130.094 C 137.719 128.739,145.654 129.979,147.400 131.863 C 148.258 132.788,153.013 134.800,154.342 134.800 C 155.552 134.800,157.168 135.502,159.457 137.021 C 164.158 140.140,168.890 140.865,171.525 138.870 L 172.850 137.867 172.769 127.433 C 172.719 120.942,172.848 116.547,173.110 115.800 C 173.342 115.140,173.547 114.887,173.566 115.238 C 173.641 116.639,176.303 118.800,177.953 118.800 C 178.761 118.800,180.800 121.057,180.800 121.951 C 180.800 122.212,181.115 122.559,181.500 122.723 C 183.464 123.555,185.283 125.038,186.081 126.458 C 186.644 127.460,187.647 128.411,188.806 129.042 C 189.852 129.611,190.941 130.600,191.343 131.345 C 192.226 132.985,194.975 134.800,196.580 134.801 C 197.251 134.802,198.400 135.169,199.134 135.616 L 200.467 136.429 200.680 135.615 C 200.797 135.167,201.025 134.800,201.186 134.800 C 201.635 134.800,202.674 132.051,203.151 129.600 C 203.925 125.621,204.800 119.633,204.800 118.310 C 204.800 117.596,205.240 116.109,205.777 115.006 C 207.177 112.133,208.695 106.656,208.987 103.420 C 209.389 98.981,210.748 92.345,211.632 90.511 C 212.790 88.105,214.375 81.253,214.801 76.800 C 215.216 72.469,215.981 68.800,216.469 68.800 C 216.651 68.800,216.800 68.513,216.800 68.162 C 216.800 67.811,217.127 67.046,217.527 66.462 C 218.250 65.408,220.449 60.933,220.999 59.400 C 221.489 58.034,222.405 61.319,222.783 65.800 M181.434 182.309 C 180.352 182.909,179.332 183.670,179.165 184.000 C 178.020 186.272,176.822 190.297,176.460 193.087 C 175.985 196.749,175.209 198.616,174.004 198.999 C 172.609 199.442,171.133 203.334,170.839 207.342 C 170.527 211.614,169.535 212.890,166.153 213.370 C 161.456 214.037,157.242 215.904,154.800 218.400 C 154.104 219.111,151.611 219.507,149.800 219.194 C 143.589 218.119,138.800 219.306,138.800 221.920 C 138.800 222.718,136.840 224.800,136.087 224.800 C 134.524 224.800,133.117 230.401,133.593 234.732 C 134.009 238.530,134.865 239.867,137.400 240.681 C 138.060 240.893,138.662 241.384,138.737 241.772 C 139.119 243.742,141.209 244.776,144.836 244.788 C 146.726 244.795,149.104 245.050,150.119 245.356 C 151.945 245.905,155.590 245.747,158.600 244.988 C 159.902 244.659,164.800 240.620,164.800 239.875 C 164.800 238.678,166.996 233.708,167.844 232.985 C 168.370 232.537,168.800 231.925,168.800 231.626 C 168.800 230.458,171.258 223.493,172.192 222.012 C 173.284 220.284,174.572 220.149,177.502 221.458 C 179.066 222.156,183.863 221.814,183.258 221.048 C 183.063 220.801,182.781 219.880,182.631 219.000 C 182.160 216.247,182.023 216.040,180.477 215.754 C 174.950 214.727,173.928 202.711,179.220 200.953 C 179.959 200.708,180.641 200.258,180.734 199.953 C 180.828 199.649,181.196 199.067,181.552 198.660 C 181.908 198.253,182.560 197.189,183.000 196.296 C 184.436 193.379,184.879 194.396,185.399 201.800 C 185.523 203.560,185.915 206.383,186.271 208.074 L 186.919 211.148 185.860 213.314 C 184.127 216.855,183.951 221.048,185.461 222.826 C 186.904 224.527,188.800 227.449,188.800 227.974 C 188.800 228.189,189.250 229.028,189.800 229.838 C 190.350 230.649,190.800 231.613,190.800 231.981 C 190.800 234.054,193.255 239.760,194.858 241.415 C 195.784 242.370,196.692 243.421,196.876 243.750 C 198.366 246.412,205.993 246.853,211.663 244.605 C 213.932 243.706,213.912 233.734,211.636 231.459 C 210.876 230.698,210.690 230.683,208.315 231.190 C 200.637 232.829,198.760 232.077,198.650 227.321 C 198.591 224.750,199.713 223.418,202.302 222.985 C 205.827 222.395,205.773 222.443,207.578 218.299 C 209.379 214.160,203.882 212.319,200.743 216.010 C 200.104 216.761,200.045 216.735,198.644 215.092 C 197.162 213.353,196.723 212.139,195.227 205.647 C 194.751 203.583,193.967 200.793,193.483 199.447 C 192.445 196.558,192.199 186.957,193.120 185.309 C 195.025 181.903,186.235 179.646,181.434 182.309 M250.600 181.484 C 247.625 181.621,244.123 182.679,242.800 183.841 C 240.874 185.532,238.679 186.800,237.681 186.800 C 236.981 186.800,235.990 187.502,234.433 189.100 C 233.201 190.365,231.637 191.811,230.957 192.314 C 230.277 192.816,229.478 193.716,229.182 194.314 C 228.885 194.911,227.852 196.232,226.886 197.249 C 225.138 199.090,223.737 202.195,222.776 206.359 C 222.553 207.327,222.017 208.615,221.585 209.221 C 220.582 210.630,220.596 211.239,221.758 216.800 C 222.287 219.330,222.900 222.606,223.121 224.080 C 223.341 225.554,223.809 227.336,224.161 228.041 C 224.512 228.746,224.800 229.493,224.800 229.701 C 224.800 229.909,225.295 230.559,225.900 231.146 C 226.505 231.732,228.330 233.694,229.956 235.506 C 231.582 237.318,233.106 238.800,233.342 238.800 C 233.579 238.800,234.138 239.159,234.586 239.598 C 240.138 245.040,239.707 244.886,249.368 244.878 C 261.945 244.868,265.200 244.194,265.200 241.604 C 265.200 240.141,265.900 239.600,267.791 239.600 C 270.894 239.600,271.797 238.050,272.998 230.665 C 273.497 227.594,273.497 227.016,272.999 226.265 C 272.046 224.828,269.658 223.159,268.222 222.926 C 267.396 222.792,266.798 222.434,266.686 222.008 C 266.128 219.873,258.775 219.831,258.467 221.961 C 258.113 224.405,258.571 224.800,261.761 224.800 C 265.318 224.800,265.087 224.198,264.871 232.910 L 264.714 239.220 263.257 238.950 C 262.456 238.802,261.188 238.471,260.441 238.214 C 259.210 237.792,258.984 237.840,258.041 238.727 C 254.805 241.771,243.293 241.287,241.443 238.029 C 241.246 237.683,239.888 236.230,238.425 234.800 C 236.564 232.980,235.630 231.720,235.313 230.600 C 233.698 224.893,232.583 221.589,231.791 220.159 C 229.419 215.878,229.795 210.281,232.666 207.135 C 233.602 206.109,234.475 204.759,234.606 204.135 C 235.354 200.582,235.820 199.495,237.265 197.930 C 238.128 196.995,239.316 195.468,239.905 194.537 C 240.913 192.944,243.198 191.447,245.863 190.633 C 246.338 190.488,246.823 190.116,246.942 189.806 C 248.327 186.197,262.800 185.675,262.800 189.235 C 262.800 189.694,263.329 190.819,263.974 191.735 C 265.552 193.972,265.643 196.800,264.137 196.800 C 263.511 196.800,261.124 195.662,260.800 195.209 C 260.242 194.430,258.712 194.498,258.071 195.330 C 257.702 195.808,256.500 197.100,255.400 198.200 L 253.400 200.200 254.271 201.926 C 254.750 202.875,255.470 204.135,255.871 204.726 C 256.272 205.317,257.058 206.970,257.618 208.400 L 258.637 211.000 261.618 211.000 C 264.759 211.000,265.891 209.967,263.770 209.035 C 261.641 208.100,261.131 205.576,262.850 204.487 C 264.066 203.717,266.388 204.230,266.397 205.271 C 266.404 205.933,267.754 206.800,268.780 206.800 C 270.323 206.800,270.652 206.228,270.933 203.067 C 271.088 201.325,271.485 199.833,272.028 198.955 C 273.867 195.978,271.534 188.800,268.727 188.800 C 267.592 188.800,265.244 186.322,264.941 184.803 C 264.684 183.522,264.455 183.362,261.581 182.455 C 259.293 181.733,254.467 181.306,250.600 181.484 M190.917 183.508 C 191.428 184.073,191.483 184.537,191.188 185.808 C 190.544 188.585,190.744 194.819,191.606 198.839 C 192.049 200.908,192.580 204.400,192.786 206.600 C 193.175 210.764,194.527 215.623,195.681 217.000 C 199.032 221.002,199.194 221.264,198.782 222.033 C 198.556 222.455,198.216 222.800,198.025 222.800 C 195.948 222.800,196.929 232.626,199.242 235.000 C 200.179 235.962,205.511 236.340,208.661 235.668 C 211.098 235.148,211.000 234.994,211.000 239.332 L 211.000 243.000 208.200 243.005 C 206.660 243.008,204.770 243.220,204.000 243.476 C 200.508 244.640,198.000 244.019,198.000 241.992 C 198.000 241.204,196.034 238.800,195.390 238.800 C 194.433 238.800,193.772 237.093,192.440 231.185 C 191.920 228.875,190.128 224.800,189.632 224.800 C 189.424 224.800,189.131 224.395,188.981 223.900 C 188.831 223.405,188.362 222.621,187.939 222.158 C 186.975 221.104,186.800 216.470,187.600 213.223 C 188.029 211.483,188.042 210.498,187.668 208.316 C 187.411 206.814,187.187 204.193,187.172 202.493 C 187.093 194.000,186.103 190.874,183.474 190.822 C 181.125 190.776,180.821 190.303,181.089 187.110 C 181.419 183.173,181.861 182.831,186.638 182.813 C 189.621 182.802,190.391 182.927,190.917 183.508 M259.564 183.647 C 261.595 184.355,260.523 184.644,253.711 185.225 C 247.921 185.719,247.582 185.708,246.796 184.996 C 244.733 183.129,254.973 182.047,259.564 183.647 M243.614 188.617 C 244.269 189.406,243.890 189.765,241.442 190.674 C 239.447 191.414,239.096 191.764,238.411 193.696 C 238.198 194.298,237.343 195.277,236.512 195.872 C 235.129 196.861,232.761 202.171,232.793 204.213 C 232.797 204.439,231.883 205.587,230.761 206.763 L 228.722 208.900 228.903 213.950 C 229.098 219.366,230.286 224.111,231.990 226.278 C 232.436 226.845,232.800 227.730,232.800 228.246 C 232.800 228.762,233.085 229.896,233.434 230.767 C 234.494 233.419,232.378 236.136,231.044 233.835 C 230.207 232.393,228.351 230.295,226.944 229.200 C 225.554 228.118,224.800 226.483,224.786 224.514 C 224.779 223.461,224.450 219.995,224.056 216.811 C 223.364 211.221,223.364 210.942,224.069 208.676 C 224.471 207.385,224.800 205.987,224.800 205.569 C 224.800 204.077,226.897 199.539,227.770 199.141 C 228.608 198.759,230.800 195.706,230.800 194.920 C 230.800 194.244,232.195 193.221,233.462 192.968 C 234.675 192.725,236.000 191.104,236.000 189.862 C 236.000 189.027,236.672 188.668,238.800 188.364 C 241.922 187.918,243.085 187.979,243.614 188.617 M179.771 191.429 C 180.577 192.235,180.575 194.101,179.766 195.666 C 178.666 197.793,177.974 196.089,178.561 192.700 C 178.933 190.555,178.916 190.573,179.771 191.429 M270.243 193.500 C 271.008 194.508,270.919 195.740,270.004 196.795 L 269.209 197.712 268.659 196.404 C 267.726 194.186,268.996 191.858,270.243 193.500 M262.400 199.977 C 263.331 200.271,263.290 200.313,261.800 200.598 C 260.920 200.765,259.930 201.047,259.600 201.223 C 258.553 201.783,257.438 200.442,258.226 199.571 C 258.880 198.849,258.791 198.841,262.400 199.977 M174.439 209.348 C 174.590 212.286,174.922 215.080,175.177 215.557 C 175.609 216.364,175.482 216.498,173.388 217.457 C 170.496 218.781,169.965 219.619,168.486 225.200 L 168.115 226.600 167.634 225.413 C 167.370 224.760,167.046 223.076,166.915 221.670 C 166.633 218.655,165.400 216.804,163.664 216.794 C 163.079 216.791,162.342 216.625,162.028 216.426 C 161.412 216.036,161.435 216.031,167.409 215.185 C 171.687 214.579,172.519 213.514,172.705 208.400 C 172.976 200.970,174.040 201.551,174.439 209.348 M206.141 215.905 C 206.245 216.073,206.106 216.628,205.833 217.139 L 205.336 218.067 204.678 217.063 C 204.188 216.315,204.145 216.009,204.510 215.861 C 205.272 215.553,205.935 215.571,206.141 215.905 M164.434 220.464 C 165.274 222.033,164.048 225.600,162.670 225.600 C 160.780 225.600,160.025 221.153,161.657 219.632 C 162.636 218.721,163.667 219.030,164.434 220.464 M158.069 220.262 C 159.424 221.488,158.082 224.063,155.788 224.639 C 155.193 224.788,154.800 225.174,154.800 225.610 C 154.800 226.008,154.429 227.200,153.974 228.259 C 153.520 229.319,153.017 230.819,152.857 231.593 C 152.626 232.702,152.378 232.994,151.682 232.971 C 146.390 232.800,146.800 232.924,146.800 231.489 C 146.800 230.768,147.042 229.823,147.338 229.389 C 149.160 226.716,148.101 225.210,144.185 224.903 C 141.086 224.661,140.815 224.452,140.806 222.300 L 140.800 220.800 145.300 220.847 C 147.775 220.873,150.340 221.013,151.000 221.157 C 152.267 221.434,155.876 220.684,156.557 220.003 C 157.093 219.467,157.213 219.488,158.069 220.262 M270.782 227.762 C 270.773 228.443,270.505 229.720,270.188 230.600 C 269.871 231.480,269.609 233.415,269.606 234.900 C 269.603 236.437,269.427 237.600,269.198 237.600 C 268.956 237.600,268.818 236.212,268.850 234.100 C 268.880 232.175,268.701 230.093,268.452 229.474 C 267.821 227.902,267.888 226.787,268.665 225.928 C 269.580 224.917,270.808 225.979,270.782 227.762 M252.816 229.500 L 252.831 232.600 254.865 233.591 C 255.983 234.136,257.328 235.146,257.853 235.835 C 259.063 237.420,260.190 237.264,261.700 235.301 C 264.652 231.464,260.470 226.400,254.350 226.400 L 252.800 226.400 252.816 229.500 M137.056 228.100 C 138.310 230.509,138.340 237.317,137.099 237.882 C 135.176 238.758,134.201 233.744,135.448 229.391 C 136.316 226.360,136.199 226.454,137.056 228.100 M158.320 228.880 C 159.012 229.572,158.910 232.464,158.157 233.540 L 157.514 234.458 156.557 233.559 C 155.391 232.464,155.385 232.296,156.436 230.126 C 157.328 228.283,157.566 228.126,158.320 228.880 M142.821 230.900 C 143.666 232.256,143.630 234.000,142.734 235.079 C 141.357 236.738,139.475 232.975,140.597 230.806 C 141.391 229.270,141.818 229.288,142.821 230.900 M164.624 230.581 C 165.896 232.522,163.885 239.312,161.890 239.813 C 161.395 239.937,160.632 240.496,160.195 241.055 C 157.961 243.909,157.800 244.000,154.965 244.000 C 152.418 244.000,149.399 243.409,148.652 242.765 C 148.235 242.404,150.869 241.012,152.727 240.611 C 153.505 240.443,154.784 239.595,155.817 238.562 C 156.786 237.593,157.809 236.790,158.089 236.778 C 158.911 236.742,160.464 234.493,160.848 232.783 C 161.521 229.788,163.391 228.698,164.624 230.581 M150.600 237.071 C 151.752 237.303,151.712 237.342,149.600 238.045 C 146.866 238.955,146.413 238.965,145.231 238.137 C 143.105 236.648,145.816 236.110,150.600 237.071 M238.391 238.017 C 237.862 239.006,237.386 239.004,236.319 238.011 L 235.472 237.221 236.436 236.858 C 237.835 236.331,238.942 236.987,238.391 238.017 M245.100 242.252 C 246.671 242.673,246.072 243.200,244.024 243.200 C 242.156 243.200,241.307 242.827,241.878 242.256 C 242.198 241.936,243.911 241.934,245.100 242.252 " stroke="none" fill="#9094a4" fill-rule="evenodd"></path><path id="path2" d="M219.850 52.082 C 219.218 52.554,218.224 53.943,217.643 55.170 C 217.062 56.396,215.770 58.214,214.773 59.210 L 212.959 61.020 212.490 66.010 C 212.232 68.754,211.921 72.654,211.798 74.676 C 211.563 78.541,211.008 80.798,210.169 81.301 C 208.177 82.496,206.800 87.378,206.800 93.246 C 206.800 99.757,205.897 104.162,204.268 105.599 C 202.247 107.382,201.523 110.836,200.997 121.200 C 200.670 127.640,200.736 127.469,198.303 128.192 C 195.587 128.998,194.692 128.959,194.097 128.007 C 193.825 127.571,192.689 126.752,191.572 126.186 C 190.099 125.439,189.384 124.780,188.968 123.786 C 188.367 122.346,187.044 121.269,185.056 120.600 C 184.184 120.307,183.711 119.771,183.284 118.592 C 182.795 117.242,182.339 116.808,180.438 115.884 C 178.828 115.102,177.952 114.373,177.407 113.361 C 175.579 109.966,171.655 109.980,170.006 113.388 C 169.260 114.928,169.200 115.844,169.200 125.646 C 169.200 132.874,169.059 136.381,168.756 136.684 C 168.078 137.362,166.114 136.516,165.345 135.215 C 164.461 133.718,163.090 133.004,160.000 132.431 C 155.607 131.616,153.126 130.683,151.826 129.358 C 149.903 127.398,148.371 126.800,145.270 126.800 C 141.743 126.800,139.616 126.042,137.908 124.178 C 136.896 123.074,136.354 122.767,135.776 122.969 C 131.537 124.452,130.728 136.678,134.614 140.509 C 136.589 142.456,136.648 142.645,137.180 148.695 C 137.722 154.865,138.507 157.439,140.399 159.260 C 142.124 160.920,142.799 163.184,142.801 167.320 C 142.803 170.182,143.741 172.125,145.499 172.905 C 146.105 173.174,146.917 173.681,147.305 174.032 C 149.522 176.035,155.184 176.210,231.148 176.611 L 274.897 176.842 276.597 175.067 C 277.533 174.091,278.770 172.295,279.346 171.077 C 279.922 169.859,280.914 168.444,281.551 167.931 C 283.011 166.756,283.707 165.350,284.638 161.700 C 285.105 159.868,285.579 158.800,285.926 158.800 C 286.228 158.800,286.567 158.446,286.681 158.013 C 286.794 157.581,287.223 157.120,287.634 156.989 C 288.097 156.842,288.544 156.114,288.807 155.076 C 289.616 151.890,290.880 148.851,291.699 148.127 C 293.194 146.804,294.800 143.892,294.800 142.502 C 294.800 140.857,295.731 138.967,297.272 137.481 C 300.317 134.545,302.153 125.263,300.028 123.543 C 297.282 121.319,292.869 122.096,292.813 124.814 C 292.794 125.740,290.682 126.800,288.857 126.800 C 287.368 126.800,285.282 127.434,284.800 128.032 C 284.690 128.169,284.195 128.494,283.700 128.754 C 283.205 129.015,282.800 129.474,282.800 129.775 C 282.800 130.577,280.410 131.851,277.816 132.431 C 276.568 132.711,275.335 133.239,275.074 133.606 C 274.813 133.973,274.195 134.488,273.700 134.751 C 273.205 135.013,272.800 135.456,272.800 135.735 C 272.800 136.014,271.495 136.661,269.900 137.172 C 266.387 138.297,264.978 139.235,264.613 140.690 C 263.566 144.863,262.798 136.820,262.903 122.770 C 263.012 108.169,262.923 107.638,260.120 106.129 C 258.087 105.034,254.800 107.331,254.800 109.846 C 254.800 110.629,253.701 112.328,252.217 113.841 C 250.848 115.236,249.918 116.964,249.133 119.570 C 248.712 120.967,248.265 121.526,247.009 122.225 C 245.273 123.190,245.290 123.167,243.934 126.493 C 243.420 127.754,242.897 128.789,242.771 128.793 C 242.346 128.806,240.800 125.321,240.800 124.351 C 240.800 123.822,240.125 122.424,239.300 121.245 C 236.877 117.781,236.860 117.714,236.443 110.366 C 235.929 101.313,235.190 97.893,233.328 95.952 C 231.506 94.052,231.214 92.673,230.965 84.800 C 230.702 76.450,229.661 71.945,227.746 70.874 C 226.634 70.251,226.029 67.624,225.611 61.600 C 225.213 55.871,224.665 52.800,224.042 52.800 C 223.866 52.800,223.307 52.440,222.800 52.000 C 221.649 51.002,221.286 51.012,219.850 52.082 M223.968 58.583 C 224.206 59.954,224.566 63.038,224.766 65.438 C 225.125 69.743,225.809 72.149,227.701 75.759 C 228.302 76.908,228.817 79.697,229.654 86.356 C 230.660 94.352,231.479 98.150,232.339 98.799 C 233.302 99.526,234.491 104.617,234.814 109.400 C 235.243 115.749,236.595 122.129,237.874 123.838 C 238.383 124.519,238.800 125.263,238.800 125.493 C 238.800 126.455,241.345 131.249,242.059 131.631 C 243.059 132.167,244.166 130.902,244.769 128.536 C 245.032 127.504,245.925 126.060,247.120 124.736 C 249.586 122.001,250.615 120.481,250.957 119.070 C 251.107 118.449,252.033 117.160,253.015 116.206 C 253.997 115.252,254.800 114.182,254.800 113.828 C 254.800 113.474,255.250 112.471,255.800 111.600 C 256.350 110.729,256.806 109.787,256.813 109.508 C 256.842 108.300,258.720 107.502,259.734 108.267 C 261.627 109.695,262.049 113.475,261.917 127.829 C 261.769 144.058,262.241 145.284,266.915 140.800 C 268.062 139.701,269.299 138.801,269.664 138.800 C 270.729 138.800,274.956 136.660,276.646 135.265 C 277.501 134.560,279.144 133.630,280.298 133.198 C 282.497 132.375,284.849 130.998,286.200 129.743 C 286.640 129.334,287.720 128.764,288.600 128.476 C 292.000 127.361,293.446 126.613,294.680 125.331 C 295.952 124.008,296.800 123.636,296.800 124.400 C 296.800 124.620,297.074 124.800,297.410 124.800 C 298.286 124.800,298.800 126.477,298.800 129.337 C 298.800 131.959,298.577 132.463,296.125 135.372 C 295.396 136.237,294.800 137.247,294.800 137.617 C 294.800 138.784,292.407 144.173,291.610 144.800 C 290.797 145.440,288.806 149.154,288.791 150.058 C 288.776 151.014,287.184 154.168,286.193 155.204 C 285.285 156.155,283.229 160.610,282.679 162.818 C 282.540 163.377,281.708 164.637,280.829 165.617 C 279.951 166.597,278.941 168.164,278.583 169.099 C 278.226 170.035,277.798 170.800,277.631 170.800 C 277.465 170.800,277.123 171.250,276.873 171.800 C 276.622 172.350,276.165 172.800,275.858 172.800 C 275.550 172.800,275.086 173.055,274.827 173.368 C 273.994 174.371,269.378 174.899,263.800 174.629 C 260.940 174.490,243.660 174.247,225.400 174.088 C 204.827 173.910,191.972 173.650,191.600 173.407 C 191.237 173.169,182.783 172.932,170.188 172.807 L 149.376 172.600 147.388 171.579 C 145.240 170.476,144.059 168.734,144.012 166.600 C 143.963 164.311,142.495 158.325,141.724 157.265 C 140.031 154.939,139.077 152.274,138.782 149.048 C 138.335 144.153,137.182 140.097,135.721 138.282 C 135.226 137.667,134.636 136.452,134.411 135.582 C 134.185 134.712,133.814 133.285,133.587 132.410 C 132.915 129.822,135.486 125.154,136.931 126.338 C 137.189 126.549,139.807 127.197,142.749 127.778 C 147.638 128.744,148.257 128.966,149.949 130.364 C 151.808 131.900,153.804 132.800,155.351 132.800 C 156.628 132.800,161.724 134.802,162.405 135.571 C 163.039 136.287,167.368 138.409,168.148 138.387 C 168.397 138.380,169.121 137.916,169.759 137.356 L 170.917 136.338 170.723 128.069 C 170.356 112.477,171.563 109.661,176.376 114.876 C 177.352 115.934,178.408 116.800,178.721 116.800 C 179.034 116.800,180.605 118.150,182.213 119.800 C 183.820 121.450,185.416 122.800,185.758 122.800 C 186.100 122.800,186.650 123.295,186.982 123.900 C 187.760 125.322,189.032 126.800,189.477 126.800 C 189.838 126.800,191.861 128.296,192.452 129.000 C 192.637 129.220,193.233 129.956,193.776 130.636 C 194.757 131.864,194.782 131.870,197.268 131.530 C 201.230 130.988,201.969 129.228,202.781 118.400 C 203.171 113.194,203.875 110.447,205.476 107.891 C 206.378 106.451,207.201 102.774,207.779 97.600 C 208.649 89.816,208.926 88.533,210.410 85.400 C 212.196 81.630,212.614 79.833,213.205 73.400 C 213.827 66.641,214.676 63.448,216.600 60.648 C 217.480 59.367,218.560 57.655,219.000 56.844 C 219.440 56.033,220.160 54.961,220.600 54.462 L 221.400 53.555 222.467 54.822 C 223.179 55.669,223.678 56.918,223.968 58.583 M180.641 180.367 C 176.140 181.620,175.323 182.956,174.793 189.934 C 174.424 194.779,173.905 196.152,172.197 196.801 C 170.751 197.351,169.773 200.018,169.052 205.375 C 168.699 208.001,168.273 210.268,168.105 210.412 C 167.670 210.785,163.090 211.907,159.800 212.446 C 156.722 212.951,154.926 213.957,154.570 215.376 C 154.195 216.870,152.784 217.200,146.768 217.200 C 139.716 217.200,137.989 217.794,137.042 220.548 C 136.661 221.657,136.107 222.234,134.776 222.908 C 132.449 224.086,131.982 225.695,131.978 232.538 C 131.974 239.453,132.491 240.875,135.500 242.227 C 136.332 242.601,136.800 243.096,136.800 243.603 C 136.800 245.366,139.773 246.800,143.428 246.800 C 145.247 246.800,147.859 247.088,149.232 247.439 C 151.341 247.980,152.105 248.003,154.164 247.591 C 155.504 247.322,157.780 246.969,159.222 246.806 C 163.687 246.301,166.261 243.854,166.775 239.626 C 167.095 236.998,167.788 235.762,169.318 235.090 C 170.739 234.467,171.546 232.854,171.849 230.029 C 172.190 226.844,172.988 224.593,173.760 224.633 C 174.112 224.652,176.645 224.697,179.390 224.733 L 184.379 224.800 185.007 226.013 C 185.352 226.680,185.983 228.356,186.409 229.736 C 186.862 231.202,187.624 232.652,188.241 233.223 C 189.553 234.438,190.800 237.241,190.800 238.977 C 190.800 241.677,195.069 246.350,198.305 247.192 C 199.347 247.464,200.483 247.758,200.829 247.847 C 201.176 247.936,201.806 248.324,202.229 248.708 C 204.887 251.117,205.421 251.172,207.537 249.257 C 208.475 248.408,209.998 247.492,210.921 247.220 C 212.748 246.682,214.800 245.006,214.800 244.051 C 214.800 243.122,216.054 238.239,216.385 237.880 C 216.547 237.704,216.330 236.854,215.903 235.990 C 215.476 235.127,215.031 233.708,214.914 232.836 C 214.794 231.938,214.222 230.678,213.595 229.926 L 212.488 228.600 207.944 228.572 C 204.303 228.550,203.042 228.385,201.600 227.742 L 199.800 226.940 202.190 226.042 C 203.504 225.548,205.064 225.047,205.656 224.929 C 208.222 224.416,211.491 217.297,210.257 214.911 C 208.936 212.355,206.514 211.489,202.821 212.250 C 199.553 212.924,198.802 212.436,198.797 209.638 C 198.790 205.113,197.255 199.071,195.933 198.364 C 193.152 196.876,193.242 188.419,196.069 185.593 C 197.064 184.597,197.296 182.800,196.429 182.800 C 196.276 182.800,195.717 182.395,195.186 181.900 C 192.865 179.734,185.647 178.973,180.641 180.367 M243.535 180.578 C 241.299 181.068,239.563 182.397,238.999 184.051 C 238.867 184.438,238.127 184.805,237.172 184.958 C 235.206 185.273,232.910 186.716,232.634 187.811 C 232.521 188.257,231.592 189.151,230.569 189.798 C 228.545 191.077,226.800 193.087,226.800 194.138 C 226.800 194.502,226.539 194.800,226.220 194.800 C 225.259 194.800,223.219 197.305,222.964 198.800 C 222.452 201.794,221.433 204.357,220.241 205.650 C 217.923 208.166,217.594 210.504,218.544 217.706 C 218.913 220.503,219.306 221.947,219.930 222.790 C 220.408 223.438,220.800 224.155,220.800 224.384 C 220.800 224.613,220.946 224.800,221.125 224.800 C 221.303 224.800,221.785 226.280,222.196 228.090 C 222.928 231.316,224.588 234.762,225.422 234.787 C 226.063 234.807,228.800 237.435,228.800 238.032 C 228.800 238.787,230.833 240.800,231.596 240.800 C 232.312 240.800,234.800 243.186,234.800 243.873 C 234.800 244.365,236.434 245.549,238.146 246.299 C 238.838 246.601,241.047 246.800,243.720 246.800 C 248.063 246.800,252.800 247.662,252.800 248.453 C 252.800 248.911,254.534 248.901,255.020 248.440 C 255.493 247.991,261.242 246.801,262.943 246.799 C 264.574 246.797,266.685 245.495,267.308 244.106 C 268.000 242.567,268.889 241.764,270.585 241.151 C 272.344 240.515,272.425 240.416,273.572 237.523 C 274.068 236.271,275.087 234.615,275.837 233.843 C 277.765 231.857,277.780 224.800,275.856 224.800 C 275.546 224.800,274.997 224.350,274.637 223.800 C 274.276 223.250,273.752 222.800,273.471 222.800 C 273.190 222.800,271.966 221.914,270.751 220.831 C 265.782 216.403,258.035 216.467,255.403 220.959 C 254.804 221.981,253.875 222.920,253.179 223.209 C 248.507 225.144,248.786 235.013,253.565 236.857 C 255.037 237.425,254.103 237.997,250.891 238.495 C 247.376 239.039,246.128 238.534,243.114 235.347 C 241.957 234.124,240.513 232.866,239.905 232.551 C 239.297 232.237,238.800 231.714,238.800 231.390 C 238.800 231.065,238.526 230.800,238.190 230.800 C 237.384 230.800,236.912 229.462,236.163 225.052 C 235.337 220.185,234.453 217.195,233.762 216.930 C 232.613 216.489,231.181 211.599,231.896 210.556 C 232.063 210.312,232.783 209.813,233.496 209.448 C 235.160 208.595,236.374 206.212,236.848 202.864 C 237.051 201.426,237.259 200.235,237.309 200.219 C 239.158 199.623,240.615 198.261,241.069 196.704 C 241.745 194.386,242.479 193.819,245.600 193.207 C 248.601 192.617,249.782 192.005,251.260 190.271 C 252.229 189.135,252.590 189.005,255.460 188.767 C 260.068 188.384,261.773 189.283,259.161 190.719 C 256.983 191.916,255.998 192.837,255.181 194.438 C 254.742 195.297,253.672 196.449,252.803 196.998 C 249.337 199.186,249.411 204.525,252.952 207.641 C 253.968 208.536,254.800 209.529,254.800 209.848 C 254.800 210.421,255.799 212.187,256.603 213.037 C 257.551 214.038,258.912 214.400,261.731 214.400 C 264.986 214.400,265.279 214.228,268.102 210.674 C 268.708 209.910,269.698 209.162,270.302 209.012 C 271.822 208.632,272.706 207.740,273.030 206.259 C 273.428 204.437,275.155 200.800,275.622 200.800 C 276.177 200.800,276.645 199.391,276.971 196.733 L 277.249 194.466 275.379 192.533 C 274.350 191.470,273.180 189.845,272.778 188.923 C 272.303 187.832,271.585 187.007,270.724 186.564 C 269.175 185.766,267.617 184.377,267.607 183.785 C 267.584 182.382,265.338 180.806,262.800 180.411 C 259.224 179.854,246.328 179.966,243.535 180.578 M191.844 181.835 C 194.316 183.478,194.456 183.804,193.570 185.869 C 192.380 188.646,192.472 195.536,193.741 198.674 C 195.577 203.210,196.128 205.033,196.497 207.800 C 196.831 210.293,197.283 211.645,198.584 214.043 C 199.166 215.114,200.330 215.234,202.154 214.409 C 204.834 213.197,205.566 213.086,206.563 213.739 C 209.209 215.472,209.336 216.325,207.497 219.971 L 206.200 222.542 203.057 223.586 C 198.769 225.010,197.989 226.273,199.474 229.386 L 200.148 230.800 203.974 230.790 C 206.078 230.785,208.456 230.628,209.258 230.442 C 213.120 229.544,215.300 236.026,213.346 242.600 C 212.097 246.802,203.305 248.413,198.141 245.387 C 197.184 244.825,196.400 244.224,196.400 244.049 C 196.400 243.875,195.590 242.910,194.600 241.906 C 193.610 240.902,192.800 239.910,192.800 239.702 C 192.800 239.493,192.539 238.800,192.221 238.161 C 191.902 237.523,191.372 235.965,191.043 234.701 C 190.713 233.436,189.773 231.186,188.953 229.701 C 188.133 228.215,187.268 226.638,187.031 226.196 C 186.794 225.754,186.099 224.739,185.487 223.941 L 184.374 222.490 181.087 222.689 C 178.394 222.852,177.409 222.738,175.638 222.059 C 173.533 221.252,172.800 221.245,172.800 222.032 C 172.800 222.243,172.378 223.087,171.863 223.908 C 171.348 224.729,170.805 226.172,170.656 227.115 C 170.238 229.768,169.448 231.734,168.116 233.439 C 167.446 234.298,166.402 236.350,165.797 238.000 C 163.388 244.567,156.672 247.746,149.232 245.840 C 147.859 245.488,145.571 245.200,144.148 245.200 C 141.145 245.200,139.553 244.521,138.541 242.809 C 138.153 242.151,137.270 241.345,136.579 241.017 C 132.601 239.129,131.466 228.432,134.906 225.244 C 135.397 224.788,136.278 223.987,136.861 223.463 C 137.445 222.939,138.209 221.956,138.559 221.279 C 139.743 218.989,140.381 218.800,146.915 218.800 C 153.588 218.800,153.935 218.700,156.739 215.966 C 157.991 214.746,162.300 213.282,165.680 212.928 C 167.883 212.698,170.000 211.446,170.000 210.374 C 170.000 205.559,171.906 199.478,173.804 198.234 C 174.919 197.504,175.704 195.177,176.397 190.555 C 177.188 185.273,178.026 183.743,181.130 181.915 C 183.846 180.315,189.495 180.273,191.844 181.835 M262.110 182.075 C 264.617 182.855,264.900 183.061,265.893 184.826 C 266.614 186.108,267.592 187.106,268.875 187.867 C 269.925 188.490,270.788 189.186,270.792 189.413 C 270.796 189.640,271.183 190.303,271.651 190.885 C 272.120 191.467,272.916 192.635,273.420 193.481 L 274.337 195.018 273.571 197.409 C 273.150 198.724,272.631 200.340,272.418 201.000 C 272.206 201.660,271.912 202.963,271.765 203.896 C 271.431 206.026,269.948 207.600,268.277 207.600 C 266.874 207.600,265.600 208.588,265.600 209.676 C 265.600 214.068,258.028 213.452,256.837 208.964 C 256.599 208.063,256.043 207.001,255.602 206.602 C 255.161 206.202,254.800 205.634,254.800 205.338 C 254.800 205.042,254.649 204.800,254.464 204.800 C 254.051 204.800,253.198 203.030,252.802 201.353 C 252.503 200.085,252.921 198.800,253.633 198.800 C 254.086 198.800,256.800 196.173,256.800 195.735 C 256.800 193.678,261.673 192.289,262.379 194.145 C 262.965 195.687,264.800 195.988,264.800 194.542 C 264.800 194.206,264.260 193.727,263.600 193.478 C 262.507 193.065,262.400 192.861,262.400 191.187 C 262.400 187.126,258.474 185.948,251.856 188.024 C 250.285 188.517,248.550 189.308,248.000 189.783 C 246.954 190.685,242.763 192.800,242.020 192.800 C 241.784 192.800,240.938 193.835,240.141 195.100 C 239.344 196.365,238.181 197.814,237.557 198.321 C 236.506 199.173,234.800 203.477,234.800 205.277 C 234.800 205.602,233.900 206.720,232.800 207.761 C 231.700 208.803,230.786 209.957,230.770 210.327 C 230.572 214.702,230.911 216.680,232.388 219.786 C 233.989 223.153,234.794 225.592,234.798 227.090 C 234.802 228.829,237.085 232.952,238.683 234.107 C 239.526 234.716,240.842 236.015,241.608 236.992 C 242.373 237.970,243.287 238.777,243.639 238.785 C 243.990 238.793,244.890 239.115,245.639 239.500 C 248.547 240.995,255.427 240.102,257.055 238.017 C 257.693 237.201,256.683 235.761,254.800 234.800 C 250.995 232.859,250.800 225.776,254.529 224.979 C 256.257 224.610,256.735 224.151,257.030 222.579 C 257.730 218.850,265.007 218.472,268.199 221.999 C 268.598 222.440,269.237 222.800,269.619 222.800 C 270.001 222.800,271.255 223.646,272.405 224.680 L 274.496 226.560 274.305 229.231 C 274.194 230.778,273.837 232.297,273.457 232.840 C 273.096 233.356,272.800 234.194,272.800 234.702 C 272.800 237.271,270.926 239.690,268.335 240.467 C 267.491 240.720,266.800 241.045,266.800 241.191 C 266.800 242.335,264.111 244.800,262.864 244.800 C 262.113 244.800,259.778 245.093,257.675 245.452 C 254.606 245.975,253.254 246.022,250.826 245.688 C 249.162 245.460,246.838 245.371,245.661 245.491 C 242.182 245.846,239.506 244.978,236.836 242.629 C 233.242 239.467,232.615 238.968,231.874 238.684 C 231.493 238.538,231.078 238.147,230.950 237.815 C 230.823 237.483,229.463 235.904,227.929 234.306 C 224.885 231.135,222.800 227.364,222.800 225.028 C 222.800 223.782,222.248 221.225,221.241 217.800 C 221.047 217.140,220.664 215.322,220.391 213.760 L 219.894 210.919 221.347 208.321 C 222.146 206.892,222.805 205.290,222.812 204.762 C 222.835 202.835,224.976 198.489,226.900 196.460 C 227.945 195.359,228.800 194.244,228.800 193.983 C 228.800 193.364,231.602 190.800,232.278 190.800 C 232.565 190.800,232.800 190.658,232.800 190.486 C 232.800 189.599,235.994 186.838,237.761 186.198 C 238.840 185.807,240.370 184.913,241.161 184.211 C 244.949 180.854,254.913 179.837,262.110 182.075 M183.052 198.301 C 182.205 199.969,181.542 200.652,179.826 201.620 C 176.786 203.336,176.741 203.428,176.666 208.082 C 176.571 213.983,177.127 214.567,183.529 215.295 C 184.314 215.384,184.609 215.042,185.446 213.073 L 186.434 210.747 185.617 207.769 C 185.103 205.895,184.790 203.495,184.772 201.296 C 184.731 196.256,184.390 195.662,183.052 198.301 M182.281 205.800 C 182.765 206.350,183.429 206.800,183.756 206.800 C 184.413 206.800,184.964 209.406,184.734 211.424 C 184.523 213.277,179.365 213.464,178.297 211.657 C 177.539 210.374,177.693 205.927,178.533 204.866 C 179.149 204.086,181.229 204.605,182.281 205.800 M263.481 205.053 C 263.342 205.192,263.418 205.661,263.651 206.096 C 264.150 207.028,265.052 206.434,264.666 205.427 C 264.416 204.775,263.916 204.617,263.481 205.053 M161.900 220.557 C 161.041 221.209,161.025 221.701,161.810 223.220 C 162.576 224.702,162.830 224.694,163.700 223.165 C 164.627 221.536,164.194 220.025,162.800 220.025 C 162.690 220.025,162.285 220.265,161.900 220.557 M263.336 226.707 C 263.005 226.918,263.091 227.272,263.636 227.945 L 264.400 228.889 264.400 227.644 C 264.400 226.381,264.169 226.177,263.336 226.707 M156.841 230.897 C 156.339 232.212,156.678 233.332,157.484 233.023 C 157.804 232.900,158.141 232.800,158.233 232.800 C 158.627 232.800,158.353 231.289,157.830 230.576 C 157.279 229.826,157.246 229.837,156.841 230.897 M140.944 231.401 C 140.817 231.731,140.834 232.481,140.981 233.066 L 141.248 234.130 142.064 233.314 C 142.738 232.640,142.801 232.349,142.426 231.649 C 141.895 230.656,141.270 230.551,140.944 231.401 " stroke="none" fill="#68708c" fill-rule="evenodd"></path><path id="path3" d="M220.600 54.462 C 220.160 54.961,219.440 56.039,219.000 56.857 C 218.560 57.675,217.473 59.392,216.584 60.672 C 214.826 63.202,213.944 66.265,213.208 72.390 C 212.529 78.033,212.836 78.948,213.614 73.600 C 214.014 70.850,214.467 67.880,214.622 67.000 C 214.906 65.380,216.405 62.165,217.663 60.478 C 218.041 59.970,218.725 58.800,219.182 57.878 C 221.735 52.732,222.880 54.081,224.215 63.800 L 224.764 67.800 224.595 64.508 C 224.324 59.222,223.672 56.254,222.467 54.822 L 221.400 53.555 220.600 54.462 M224.832 69.429 C 224.795 70.384,225.939 74.016,226.453 74.580 C 226.644 74.789,226.800 75.374,226.800 75.880 C 226.800 76.386,226.957 76.800,227.149 76.800 C 227.341 76.800,227.776 77.745,228.117 78.900 C 228.710 80.914,228.737 80.942,228.768 79.579 C 228.785 78.797,228.373 77.267,227.852 76.179 C 227.036 74.476,225.737 71.226,225.063 69.200 C 224.929 68.799,224.853 68.875,224.832 69.429 M212.087 81.265 C 211.822 82.291,210.975 84.342,210.203 85.822 C 209.431 87.302,208.803 89.073,208.807 89.757 C 208.813 90.752,209.099 90.323,210.241 87.600 C 212.300 82.692,212.884 80.925,212.716 80.116 C 212.631 79.708,212.361 80.203,212.087 81.265 M228.846 82.480 C 228.770 84.924,230.264 95.869,230.625 95.508 C 230.768 95.365,229.339 82.841,229.038 81.600 C 228.958 81.270,228.872 81.666,228.846 82.480 M208.447 91.800 C 208.353 92.840,207.298 101.331,207.005 103.400 C 206.850 104.498,206.890 104.749,207.131 104.200 C 207.662 102.990,208.893 93.526,208.694 92.180 C 208.591 91.483,208.490 91.328,208.447 91.800 M230.833 96.560 C 230.815 96.978,231.222 98.238,231.738 99.360 C 232.949 101.992,233.517 103.764,234.219 107.096 L 234.788 109.800 234.641 107.108 C 234.508 104.687,233.024 99.307,232.349 98.800 C 232.202 98.690,231.808 97.970,231.474 97.200 C 231.071 96.274,230.854 96.058,230.833 96.560 M206.166 106.505 C 205.927 106.997,205.349 108.120,204.882 109.000 C 203.737 111.159,202.790 114.968,202.847 117.184 L 202.894 119.000 203.255 116.823 C 203.758 113.787,204.954 110.062,205.990 108.307 C 206.470 107.493,206.804 106.552,206.732 106.218 C 206.635 105.770,206.486 105.845,206.166 106.505 M257.700 108.377 C 257.205 108.790,256.800 109.328,256.800 109.572 C 256.800 109.816,256.339 110.746,255.776 111.637 C 255.213 112.529,254.810 113.554,254.879 113.915 C 254.950 114.286,255.588 113.389,256.341 111.859 C 258.420 107.635,259.758 107.747,260.904 112.239 C 261.533 114.705,261.580 116.327,261.346 127.443 C 261.068 140.679,261.144 141.728,262.433 142.418 C 263.248 142.854,263.249 142.847,262.528 141.744 C 261.855 140.714,261.809 139.653,261.920 127.814 C 262.052 113.805,261.623 109.829,259.818 108.313 C 258.804 107.462,258.797 107.462,257.700 108.377 M171.969 113.569 C 171.049 114.490,170.813 115.064,170.860 116.269 C 170.913 117.616,170.940 117.656,171.087 116.600 C 171.180 115.940,171.791 114.725,172.446 113.900 C 173.866 112.112,173.606 111.932,171.969 113.569 M234.860 113.750 C 234.797 115.379,236.337 122.596,236.676 122.258 C 236.783 122.150,236.498 120.383,236.042 118.331 C 235.585 116.279,235.146 114.060,235.066 113.400 C 234.944 112.397,234.910 112.455,234.860 113.750 M174.446 113.500 C 175.629 115.024,177.589 116.944,177.774 116.760 C 177.997 116.536,174.608 112.800,174.182 112.800 C 174.028 112.800,174.147 113.115,174.446 113.500 M253.000 116.104 C 251.776 117.353,250.840 118.736,250.814 119.331 C 250.806 119.513,251.295 119.063,251.900 118.331 C 252.505 117.599,253.405 116.672,253.900 116.271 C 254.773 115.564,255.110 114.759,254.500 114.839 C 254.335 114.861,253.660 115.430,253.000 116.104 M181.146 119.529 C 182.606 121.029,184.361 122.584,185.046 122.983 C 185.731 123.382,186.595 124.221,186.965 124.849 C 187.335 125.476,188.305 126.486,189.119 127.094 C 189.934 127.702,190.660 128.335,190.733 128.500 C 190.807 128.665,191.115 128.800,191.419 128.800 C 191.723 128.800,192.181 129.205,192.436 129.700 C 193.624 132.003,194.363 132.400,197.470 132.400 C 199.081 132.400,200.400 132.354,200.400 132.297 C 200.400 132.240,200.940 130.606,201.600 128.666 C 202.436 126.208,202.784 124.449,202.747 122.869 L 202.695 120.600 202.388 123.200 C 202.076 125.846,200.804 130.156,200.139 130.821 C 198.945 132.015,194.781 131.894,193.776 130.636 C 193.233 129.956,192.637 129.220,192.452 129.000 C 191.861 128.296,189.838 126.800,189.477 126.800 C 189.032 126.800,187.760 125.322,186.982 123.900 C 186.650 123.295,186.100 122.800,185.758 122.800 C 185.416 122.800,183.820 121.450,182.213 119.800 C 180.605 118.150,179.110 116.800,178.891 116.800 C 178.672 116.800,179.687 118.028,181.146 119.529 M170.524 121.400 C 170.526 122.720,170.601 123.212,170.690 122.493 C 170.779 121.774,170.777 120.694,170.686 120.093 C 170.595 119.492,170.522 120.080,170.524 121.400 M249.659 121.705 C 249.201 122.446,248.434 123.401,247.954 123.826 C 246.699 124.941,244.800 127.624,244.800 128.284 C 244.800 129.194,245.364 128.589,246.343 126.629 C 246.845 125.623,247.408 124.800,247.594 124.800 C 248.043 124.800,250.953 120.820,250.693 120.560 C 250.582 120.449,250.117 120.964,249.659 121.705 M236.814 123.100 C 236.806 123.375,237.228 124.455,237.751 125.500 C 238.275 126.545,239.183 128.409,239.770 129.643 C 241.519 133.315,244.888 133.421,244.770 129.800 C 244.750 129.176,244.684 129.135,244.472 129.613 C 243.682 131.395,242.883 132.073,242.080 131.643 C 241.337 131.245,238.802 126.467,238.798 125.455 C 238.795 124.818,236.832 122.487,236.814 123.100 M294.680 125.331 C 293.446 126.613,292.000 127.361,288.600 128.476 C 287.720 128.764,286.506 129.433,285.903 129.963 C 285.300 130.493,284.130 131.342,283.303 131.851 C 282.476 132.359,282.045 132.781,282.344 132.788 C 283.000 132.803,286.800 130.392,286.800 129.961 C 286.800 129.794,287.835 129.277,289.100 128.812 C 293.706 127.118,294.686 126.625,295.040 125.822 C 296.044 123.543,297.785 125.430,298.239 129.293 C 298.488 131.415,298.459 131.496,296.647 133.722 C 295.631 134.969,294.804 136.216,294.809 136.494 C 294.818 137.005,295.474 136.293,297.624 133.440 C 299.374 131.118,299.217 124.800,297.410 124.800 C 297.074 124.800,296.800 124.620,296.800 124.400 C 296.800 123.636,295.952 124.008,294.680 125.331 M135.600 126.513 C 134.169 127.675,133.137 130.676,133.580 132.384 C 133.811 133.273,134.185 134.712,134.411 135.582 C 134.636 136.452,135.234 137.667,135.739 138.282 C 136.597 139.327,137.445 141.607,138.389 145.400 L 138.786 147.000 138.588 145.200 C 138.300 142.583,136.808 138.213,135.803 137.043 C 132.912 133.678,134.169 126.109,137.441 127.180 C 138.078 127.389,140.220 127.842,142.200 128.187 C 147.255 129.068,147.326 129.088,148.208 129.885 C 149.929 131.439,152.292 132.798,153.222 132.768 C 154.134 132.739,154.119 132.709,153.000 132.319 C 152.340 132.090,150.967 131.212,149.949 130.368 C 148.253 128.963,147.649 128.746,142.749 127.783 C 139.807 127.204,137.229 126.566,137.020 126.365 C 136.533 125.897,136.333 125.918,135.600 126.513 M170.924 134.200 C 170.926 135.520,171.001 136.012,171.090 135.293 C 171.179 134.574,171.177 133.494,171.086 132.893 C 170.995 132.292,170.922 132.880,170.924 134.200 M157.200 133.814 C 158.630 134.349,159.943 134.790,160.117 134.793 C 160.292 134.797,160.920 135.250,161.513 135.800 C 162.107 136.350,162.730 136.800,162.898 136.800 C 163.066 136.800,164.137 137.250,165.277 137.800 C 166.417 138.350,167.631 138.799,167.975 138.798 C 168.683 138.796,171.239 136.837,170.562 136.814 C 170.321 136.806,169.798 137.160,169.400 137.600 C 168.364 138.745,164.128 137.516,162.405 135.571 C 161.720 134.798,156.598 132.789,155.392 132.821 C 154.956 132.832,155.770 133.279,157.200 133.814 M279.400 133.547 C 278.520 133.948,277.198 134.785,276.462 135.406 C 275.725 136.027,274.105 137.031,272.862 137.637 C 269.816 139.120,270.881 139.109,274.072 137.624 C 275.462 136.977,276.827 136.077,277.103 135.624 C 277.380 135.171,277.767 134.800,277.963 134.800 C 278.158 134.800,279.102 134.352,280.059 133.805 C 282.091 132.643,281.709 132.494,279.400 133.547 M294.319 137.800 C 293.388 140.795,292.333 142.930,290.689 145.144 C 289.650 146.543,288.805 148.073,288.810 148.544 C 288.817 149.129,289.142 148.766,289.836 147.400 C 290.395 146.300,291.194 145.130,291.612 144.800 C 292.492 144.105,294.888 138.524,294.697 137.614 C 294.600 137.156,294.504 137.203,294.319 137.800 M267.370 140.431 C 266.507 141.328,265.260 142.327,264.600 142.651 L 263.400 143.240 264.600 143.003 C 265.260 142.873,266.160 142.343,266.600 141.826 C 267.040 141.308,268.100 140.416,268.956 139.842 C 270.112 139.068,270.310 138.800,269.726 138.800 C 269.294 138.800,268.234 139.534,267.370 140.431 M138.955 150.464 C 139.096 152.364,140.235 155.122,141.882 157.556 C 143.317 159.675,142.961 158.271,141.205 154.880 C 140.327 153.186,139.431 151.080,139.213 150.200 L 138.817 148.600 138.955 150.464 M287.420 152.230 C 286.771 153.630,286.016 154.862,285.742 154.967 C 285.039 155.237,282.705 160.216,282.877 161.082 C 282.961 161.506,283.409 160.761,283.972 159.263 C 284.496 157.867,285.512 156.024,286.228 155.166 C 287.436 153.720,289.119 150.173,288.758 149.834 C 288.671 149.752,288.069 150.831,287.420 152.230 M143.026 160.400 C 143.159 161.170,143.492 163.241,143.765 165.002 C 144.436 169.325,145.003 170.353,147.389 171.579 L 149.377 172.600 167.189 172.616 L 185.000 172.633 167.600 172.407 C 145.405 172.120,145.415 172.123,144.396 165.572 C 144.116 163.775,143.639 161.561,143.335 160.652 C 142.821 159.114,142.800 159.097,143.026 160.400 M281.700 163.508 C 281.237 164.332,280.395 165.441,279.829 165.973 C 279.263 166.505,278.800 167.203,278.800 167.525 C 278.800 167.847,279.295 167.487,279.900 166.726 C 280.505 165.965,281.303 165.039,281.674 164.669 C 282.372 163.971,282.997 162.464,282.708 162.174 C 282.617 162.083,282.163 162.683,281.700 163.508 M277.671 169.686 C 275.254 173.595,269.395 174.602,257.061 173.227 C 254.597 172.952,241.209 172.824,219.516 172.866 C 197.302 172.910,186.892 173.054,189.000 173.289 C 190.760 173.485,207.140 173.810,225.400 174.011 C 243.660 174.212,260.940 174.490,263.800 174.629 C 269.378 174.899,273.994 174.371,274.827 173.368 C 275.086 173.055,275.550 172.800,275.858 172.800 C 276.165 172.800,276.622 172.350,276.873 171.800 C 277.123 171.250,277.451 170.800,277.600 170.800 C 277.939 170.800,278.892 168.758,278.661 168.527 C 278.567 168.434,278.122 168.955,277.671 169.686 M181.130 181.915 C 178.388 183.530,176.560 186.326,176.867 188.437 C 176.967 189.126,177.228 188.768,177.927 186.975 C 179.279 183.513,179.290 183.498,181.434 182.309 C 186.110 179.715,194.977 181.879,193.209 185.183 C 192.984 185.603,192.813 186.274,192.830 186.674 C 192.847 187.088,193.165 186.713,193.572 185.800 C 194.463 183.799,194.350 183.507,192.093 182.013 C 189.462 180.269,184.007 180.221,181.130 181.915 M248.400 181.176 C 245.432 181.610,242.895 182.674,241.161 184.211 C 240.370 184.913,238.840 185.807,237.761 186.198 C 235.994 186.838,232.800 189.599,232.800 190.486 C 232.800 190.658,232.565 190.800,232.278 190.800 C 231.612 190.800,228.800 193.359,228.800 193.965 C 228.800 194.448,230.563 192.908,234.373 189.100 C 235.794 187.679,237.014 186.800,237.563 186.800 C 238.711 186.800,239.783 186.231,241.972 184.461 C 245.271 181.794,254.320 180.534,259.700 181.993 C 260.525 182.217,261.809 182.556,262.553 182.747 C 264.449 183.234,264.664 183.421,264.946 184.829 C 265.245 186.327,267.600 188.800,268.727 188.800 C 271.534 188.800,273.867 195.978,272.028 198.955 C 271.485 199.833,271.088 201.325,270.933 203.067 C 270.652 206.228,270.323 206.800,268.780 206.800 C 267.754 206.800,266.404 205.933,266.397 205.271 C 266.388 204.230,264.066 203.717,262.850 204.487 C 261.131 205.576,261.641 208.100,263.770 209.035 C 265.891 209.967,264.759 211.000,261.618 211.000 L 258.637 211.000 257.618 208.400 C 257.058 206.970,256.272 205.317,255.871 204.726 C 255.470 204.135,254.750 202.875,254.271 201.926 L 253.400 200.200 255.400 198.200 C 256.500 197.100,257.702 195.808,258.071 195.330 C 258.712 194.498,260.242 194.430,260.800 195.209 C 261.124 195.662,263.511 196.800,264.137 196.800 C 265.643 196.800,265.552 193.972,263.974 191.735 C 263.329 190.819,262.800 189.694,262.800 189.235 C 262.800 188.047,261.392 186.794,260.100 186.832 C 259.482 186.849,259.263 186.959,259.600 187.081 C 261.276 187.691,262.400 189.339,262.400 191.187 C 262.400 192.861,262.507 193.065,263.600 193.478 C 264.260 193.727,264.800 194.206,264.800 194.542 C 264.800 195.988,262.965 195.687,262.379 194.145 C 261.673 192.289,256.800 193.678,256.800 195.735 C 256.800 196.173,254.086 198.800,253.633 198.800 C 252.921 198.800,252.503 200.085,252.802 201.353 C 253.198 203.030,254.051 204.800,254.464 204.800 C 254.649 204.800,254.800 205.042,254.800 205.338 C 254.800 205.634,255.161 206.202,255.602 206.602 C 256.043 207.001,256.599 208.063,256.837 208.964 C 258.028 213.452,265.600 214.068,265.600 209.676 C 265.600 208.588,266.874 207.600,268.277 207.600 C 269.948 207.600,271.431 206.026,271.765 203.896 C 271.912 202.963,272.206 201.660,272.418 201.000 C 272.631 200.340,273.150 198.724,273.571 197.409 L 274.337 195.018 273.420 193.481 C 272.916 192.635,272.120 191.467,271.651 190.885 C 271.183 190.303,270.796 189.640,270.792 189.413 C 270.788 189.186,269.925 188.490,268.875 187.867 C 267.592 187.106,266.614 186.108,265.893 184.826 C 264.185 181.787,255.957 180.071,248.400 181.176 M252.000 187.176 C 249.944 187.807,247.153 189.257,246.943 189.804 C 246.824 190.115,246.338 190.488,245.863 190.633 C 243.198 191.447,240.913 192.944,239.905 194.537 C 239.316 195.468,238.135 196.987,237.281 197.912 C 235.789 199.528,234.760 201.859,234.836 203.446 C 234.857 203.861,235.208 203.120,235.619 201.800 C 236.094 200.271,236.784 199.037,237.521 198.400 C 238.157 197.850,239.333 196.365,240.134 195.100 C 240.935 193.835,241.784 192.800,242.020 192.800 C 242.743 192.800,246.938 190.697,248.000 189.803 C 249.155 188.829,252.282 187.686,255.068 187.219 L 257.000 186.894 255.000 186.881 C 253.900 186.874,252.550 187.007,252.000 187.176 M192.542 191.800 C 192.541 193.780,192.608 194.640,192.692 193.712 C 192.776 192.784,192.777 191.164,192.695 190.112 C 192.612 189.060,192.543 189.820,192.542 191.800 M176.454 190.321 C 176.276 193.335,175.039 197.042,173.826 198.195 C 172.013 199.920,171.248 201.298,171.010 203.272 C 170.857 204.534,170.893 204.730,171.142 204.000 C 172.026 201.405,173.269 199.232,174.002 198.999 C 175.458 198.537,177.186 192.968,176.688 190.343 L 176.509 189.400 176.454 190.321 M183.427 195.282 C 183.082 195.775,182.800 196.394,182.800 196.658 C 182.800 196.922,182.377 197.647,181.860 198.269 C 181.342 198.891,180.839 199.649,180.742 199.953 C 180.644 200.258,179.959 200.708,179.220 200.953 C 176.661 201.803,174.692 208.952,176.254 211.720 C 176.468 212.099,176.625 210.738,176.666 208.148 C 176.741 203.422,176.781 203.339,179.826 201.620 C 181.542 200.652,182.205 199.969,183.052 198.301 C 183.968 196.493,184.161 196.312,184.430 197.000 C 184.673 197.619,184.750 197.466,184.772 196.324 C 184.806 194.512,184.262 194.090,183.427 195.282 M226.500 196.780 C 224.161 199.394,224.359 199.804,226.800 197.400 C 228.669 195.559,229.210 194.744,228.500 194.841 C 228.335 194.863,227.435 195.736,226.500 196.780 M192.823 197.014 C 192.810 197.241,193.148 198.418,193.573 199.628 C 193.999 200.838,194.739 203.532,195.219 205.614 C 196.724 212.143,197.160 213.351,198.644 215.092 C 200.045 216.735,200.104 216.761,200.743 216.010 C 203.882 212.319,209.379 214.160,207.578 218.299 C 205.773 222.443,205.827 222.395,202.302 222.985 C 200.162 223.343,198.811 224.659,198.593 226.600 C 198.419 228.156,198.424 228.163,198.764 226.863 C 199.248 225.014,199.607 224.743,203.117 223.571 L 206.200 222.542 207.497 219.971 C 209.336 216.325,209.209 215.472,206.563 213.739 C 205.566 213.086,204.834 213.197,202.154 214.409 C 200.591 215.116,198.800 215.096,198.800 214.371 C 198.800 214.187,198.377 213.413,197.861 212.651 C 197.202 211.681,196.843 210.429,196.661 208.467 C 196.518 206.928,196.041 204.828,195.600 203.801 C 195.160 202.774,194.800 201.702,194.800 201.418 C 194.800 200.777,192.855 196.444,192.823 197.014 M184.847 201.296 C 184.815 203.710,185.054 205.718,185.622 207.788 L 186.444 210.785 185.617 212.654 C 185.162 213.682,184.880 214.614,184.990 214.724 C 185.943 215.676,186.871 210.881,186.249 208.220 C 185.886 206.669,185.571 204.230,185.548 202.800 C 185.477 198.483,184.902 197.247,184.847 201.296 M223.666 201.715 C 223.190 202.988,222.809 204.338,222.820 204.715 C 222.830 205.092,223.284 204.242,223.829 202.827 C 224.373 201.412,224.754 200.062,224.675 199.827 C 224.597 199.592,224.143 200.442,223.666 201.715 M234.446 204.717 C 234.421 205.002,233.590 206.100,232.600 207.159 C 230.156 209.772,230.319 210.141,232.843 207.708 C 234.291 206.312,234.828 205.515,234.689 204.970 C 234.581 204.546,234.472 204.433,234.446 204.717 M264.666 205.427 C 265.052 206.434,264.150 207.028,263.651 206.096 C 263.234 205.316,263.404 204.800,264.079 204.800 C 264.269 204.800,264.533 205.082,264.666 205.427 M170.241 208.315 C 169.875 211.551,168.840 212.598,165.680 212.928 C 162.300 213.282,157.991 214.746,156.739 215.966 C 154.283 218.361,153.360 218.789,150.526 218.850 L 148.200 218.900 150.000 219.214 C 151.610 219.494,154.151 219.064,154.800 218.400 C 157.251 215.895,161.454 214.038,166.200 213.364 C 169.256 212.929,170.800 211.210,170.800 208.240 C 170.800 205.355,170.573 205.385,170.241 208.315 M221.232 208.538 C 219.723 211.337,219.738 211.944,221.470 218.600 C 223.094 224.841,223.330 223.500,221.800 216.722 C 220.597 211.394,220.574 210.640,221.573 209.237 C 222.277 208.250,223.090 205.999,222.743 206.001 C 222.665 206.001,221.984 207.143,221.232 208.538 M230.294 210.500 C 230.189 210.775,230.239 212.170,230.405 213.600 L 230.708 216.200 230.700 213.100 C 230.691 209.954,230.637 209.605,230.294 210.500 M176.800 213.219 C 176.800 214.058,178.846 215.505,180.377 215.750 C 182.032 216.015,182.150 216.185,182.631 219.000 C 182.781 219.880,183.063 220.801,183.258 221.048 C 183.863 221.814,179.066 222.156,177.502 221.458 C 174.071 219.925,170.854 221.495,170.808 224.724 C 170.795 225.604,171.383 224.951,172.356 223.002 C 173.059 221.594,173.442 221.211,173.941 221.415 C 177.036 222.680,178.266 222.896,181.230 222.693 L 184.365 222.478 185.482 223.935 C 186.097 224.737,186.794 225.754,187.031 226.196 C 188.430 228.803,190.540 232.624,190.660 232.767 C 191.330 233.563,190.570 230.973,189.800 229.838 C 189.250 229.028,188.800 228.189,188.800 227.974 C 188.800 227.449,186.905 224.527,185.462 222.827 C 184.335 221.499,184.305 221.357,184.550 218.427 C 184.794 215.493,184.774 215.398,183.901 215.326 C 180.115 215.014,178.735 214.643,178.031 213.748 C 177.230 212.731,176.800 212.546,176.800 213.219 M230.812 217.486 C 230.805 217.973,231.232 219.145,231.759 220.090 C 232.287 221.035,233.134 223.157,233.642 224.804 C 234.149 226.452,234.631 227.486,234.711 227.102 C 234.928 226.071,233.798 222.585,232.216 219.400 C 231.332 217.623,230.820 216.924,230.812 217.486 M139.722 219.787 C 139.105 220.330,138.794 220.780,139.030 220.787 C 139.267 220.794,139.883 220.350,140.400 219.800 C 141.608 218.514,141.178 218.506,139.722 219.787 M161.657 219.632 C 160.520 220.692,160.443 223.953,161.531 224.938 C 162.473 225.790,162.920 225.772,163.755 224.850 C 165.946 222.429,163.960 217.488,161.657 219.632 M261.446 219.675 C 258.461 220.154,257.348 220.886,257.030 222.579 C 256.735 224.151,256.257 224.610,254.529 224.979 C 250.800 225.776,250.995 232.859,254.800 234.800 C 256.683 235.761,257.693 237.201,257.055 238.017 C 255.427 240.102,248.547 240.995,245.639 239.500 C 244.890 239.115,243.990 238.793,243.639 238.785 C 243.287 238.777,242.373 237.970,241.608 236.992 C 240.842 236.015,239.526 234.716,238.683 234.107 C 237.694 233.392,236.743 232.150,235.999 230.600 C 234.729 227.955,234.356 228.505,235.547 231.267 C 235.992 232.300,237.117 233.691,238.330 234.709 C 239.450 235.650,240.662 236.920,241.024 237.533 C 243.212 241.236,254.529 242.031,258.041 238.727 C 258.984 237.840,259.210 237.792,260.441 238.214 C 261.188 238.471,262.456 238.802,263.257 238.950 L 264.714 239.220 264.871 232.910 C 265.087 224.198,265.318 224.800,261.761 224.800 C 258.571 224.800,258.113 224.405,258.467 221.961 C 258.775 219.831,266.128 219.873,266.686 222.008 C 266.798 222.434,267.396 222.792,268.222 222.926 C 269.658 223.159,272.046 224.828,272.999 226.265 C 273.497 227.016,273.497 227.594,272.998 230.665 C 271.797 238.050,270.894 239.600,267.791 239.600 C 265.900 239.600,265.200 240.141,265.200 241.604 C 265.200 244.194,261.945 244.868,249.368 244.878 C 239.707 244.886,240.138 245.040,234.586 239.598 C 234.138 239.159,233.579 238.800,233.342 238.800 C 233.106 238.800,231.582 237.318,229.956 235.506 C 228.330 233.694,226.505 231.732,225.900 231.146 C 225.295 230.559,224.800 229.827,224.800 229.520 C 224.800 229.212,224.627 228.787,224.416 228.576 C 224.206 228.366,223.767 227.205,223.443 225.996 C 222.941 224.129,222.849 223.996,222.826 225.109 C 222.782 227.333,224.900 231.151,227.929 234.306 C 229.463 235.904,230.823 237.483,230.950 237.815 C 231.078 238.147,231.493 238.538,231.874 238.684 C 232.615 238.968,233.242 239.467,236.836 242.629 C 239.506 244.978,242.182 245.846,245.661 245.491 C 246.838 245.371,249.162 245.460,250.826 245.688 C 253.254 246.022,254.606 245.975,257.675 245.452 C 259.778 245.093,262.113 244.800,262.864 244.800 C 264.111 244.800,266.800 242.335,266.800 241.191 C 266.800 241.045,267.491 240.720,268.335 240.467 C 270.926 239.690,272.800 237.271,272.800 234.702 C 272.800 234.194,273.096 233.356,273.457 232.840 C 273.837 232.297,274.194 230.778,274.305 229.231 L 274.496 226.560 272.405 224.680 C 271.255 223.646,270.001 222.800,269.619 222.800 C 269.237 222.800,268.598 222.440,268.199 221.999 C 267.606 221.344,264.024 219.078,263.850 219.248 C 263.822 219.275,262.741 219.467,261.446 219.675 M163.700 220.557 C 164.642 221.272,163.839 224.388,162.710 224.397 C 162.358 224.401,161.200 222.227,161.200 221.564 C 161.200 221.124,162.342 220.025,162.800 220.025 C 162.910 220.025,163.315 220.265,163.700 220.557 M138.446 221.469 C 138.403 221.906,137.553 222.819,135.030 225.137 C 131.472 228.406,132.514 239.088,136.579 241.017 C 137.270 241.345,138.153 242.151,138.541 242.809 C 139.554 244.523,141.144 245.200,144.161 245.200 C 145.591 245.200,147.805 245.478,149.080 245.819 C 151.745 246.530,156.622 246.296,158.600 245.362 L 159.800 244.795 158.600 245.043 C 155.059 245.774,151.895 245.890,150.119 245.356 C 149.104 245.050,146.726 244.795,144.836 244.788 C 141.209 244.776,139.119 243.742,138.737 241.772 C 138.662 241.384,138.060 240.893,137.400 240.681 C 134.865 239.867,134.009 238.530,133.593 234.732 C 133.110 230.333,134.526 224.800,136.134 224.800 C 137.013 224.800,138.891 222.545,138.683 221.740 C 138.579 221.333,138.472 221.211,138.446 221.469 M169.689 228.296 C 169.200 229.814,168.800 231.307,168.800 231.613 C 168.800 231.919,168.370 232.537,167.844 232.985 C 166.941 233.755,164.499 239.432,164.899 239.833 C 165.002 239.935,165.489 238.890,165.983 237.510 C 166.476 236.129,167.372 234.370,167.975 233.600 C 169.454 231.709,169.811 230.956,170.384 228.511 C 171.132 225.326,170.690 225.189,169.689 228.296 M257.179 226.656 C 259.380 227.096,262.800 230.576,262.800 232.376 C 262.800 235.773,259.543 238.050,257.853 235.835 C 257.328 235.146,255.983 234.136,254.865 233.591 L 252.831 232.600 252.816 229.500 L 252.800 226.400 254.350 226.400 C 255.203 226.400,256.475 226.515,257.179 226.656 M264.400 227.644 L 264.400 228.889 263.636 227.945 C 263.091 227.272,263.005 226.918,263.336 226.707 C 264.169 226.177,264.400 226.381,264.400 227.644 M156.436 230.126 C 155.385 232.296,155.391 232.464,156.557 233.559 L 157.514 234.458 158.157 233.540 C 159.262 231.963,158.845 228.400,157.556 228.400 C 157.399 228.400,156.895 229.177,156.436 230.126 M198.826 228.938 C 198.721 231.967,201.539 232.636,208.315 231.190 C 210.690 230.683,210.876 230.698,211.636 231.459 C 213.912 233.734,213.932 243.706,211.663 244.605 C 205.708 246.966,198.686 246.444,196.674 243.492 C 195.671 242.021,192.800 239.165,192.800 239.639 C 192.800 239.882,193.610 240.902,194.600 241.906 C 195.590 242.910,196.400 243.875,196.400 244.049 C 196.400 244.224,197.184 244.825,198.141 245.387 C 203.305 248.413,212.097 246.802,213.346 242.600 C 215.300 236.026,213.120 229.544,209.258 230.442 C 208.456 230.628,206.078 230.785,203.973 230.790 L 200.145 230.800 199.498 229.500 C 199.052 228.604,198.843 228.430,198.826 228.938 M140.597 230.806 C 139.475 232.975,141.357 236.738,142.734 235.079 C 143.630 234.000,143.666 232.256,142.821 230.900 C 141.818 229.288,141.391 229.270,140.597 230.806 M158.400 232.076 C 158.400 232.474,158.325 232.800,158.233 232.800 C 158.141 232.800,157.804 232.900,157.484 233.023 C 156.678 233.332,156.339 232.212,156.841 230.897 C 157.310 229.670,158.400 230.495,158.400 232.076 M142.426 231.649 C 142.801 232.349,142.738 232.640,142.064 233.314 L 141.248 234.130 140.981 233.066 C 140.476 231.055,141.547 230.005,142.426 231.649 M190.830 233.650 C 190.805 234.200,191.234 235.658,192.216 238.357 C 192.328 238.664,192.503 238.830,192.607 238.727 C 192.710 238.623,192.359 237.293,191.827 235.770 C 191.295 234.246,190.846 233.292,190.830 233.650 M145.042 236.912 C 143.096 238.355,146.286 239.148,149.600 238.045 C 151.712 237.342,151.752 237.303,150.600 237.071 C 147.307 236.410,145.779 236.366,145.042 236.912 M162.200 242.629 C 160.880 243.812,160.038 244.785,160.330 244.790 C 160.933 244.801,165.095 240.959,164.796 240.668 C 164.688 240.563,163.520 241.446,162.200 242.629 " stroke="none" fill="#7c8494" fill-rule="evenodd"></path><path id="path4" d="M170.000 40.353 C 170.000 40.550,169.685 40.686,169.300 40.656 C 168.861 40.621,168.621 40.861,168.656 41.300 C 168.686 41.685,168.551 42.000,168.356 42.000 C 168.160 42.000,168.000 42.720,168.000 43.600 L 168.000 45.200 164.100 45.219 C 147.022 45.303,146.800 45.349,146.800 48.851 L 146.800 50.750 139.613 50.875 C 131.421 51.018,131.250 51.082,130.903 54.159 L 130.696 56.000 127.448 56.039 C 125.662 56.060,123.505 56.045,122.656 56.005 C 121.643 55.957,121.202 56.080,121.376 56.362 C 121.546 56.635,121.392 56.695,120.951 56.526 C 120.416 56.321,120.321 56.416,120.526 56.951 C 120.691 57.380,120.634 57.544,120.375 57.385 C 120.106 57.218,119.993 57.772,120.054 58.956 C 120.174 61.279,120.612 61.070,114.800 61.463 L 109.800 61.800 109.681 64.300 L 109.562 66.800 106.881 66.824 C 100.867 66.877,99.584 67.425,99.228 70.092 L 99.000 71.800 96.800 72.004 C 93.926 72.271,93.601 72.526,93.594 74.524 C 93.586 76.811,93.355 77.037,90.600 77.445 L 88.200 77.800 88.082 80.249 L 87.964 82.699 83.566 82.880 C 78.503 83.089,78.019 83.355,77.709 86.109 L 77.507 87.900 75.478 88.140 C 72.938 88.441,72.441 88.938,72.140 91.478 L 71.900 93.507 70.109 93.709 C 67.355 94.019,67.089 94.503,66.880 99.566 L 66.699 103.964 64.249 104.082 L 61.800 104.200 61.446 106.690 C 61.063 109.378,60.928 109.504,58.269 109.671 C 56.251 109.798,56.094 110.197,56.028 115.380 C 55.963 120.515,56.235 119.972,53.670 120.084 C 52.531 120.133,51.600 120.325,51.600 120.511 C 51.600 120.696,51.420 120.736,51.200 120.600 C 50.941 120.440,50.800 122.196,50.800 125.576 L 50.800 130.800 48.424 130.800 C 45.495 130.800,45.427 130.900,45.356 135.300 C 45.325 137.225,45.278 139.430,45.250 140.200 L 45.200 141.600 43.249 141.600 C 41.193 141.600,40.124 142.303,40.538 143.382 C 40.663 143.708,40.593 144.081,40.383 144.211 C 39.857 144.535,39.862 213.200,40.387 213.200 C 40.601 213.200,40.670 213.472,40.543 213.805 C 40.159 214.805,41.170 215.568,43.242 215.843 C 45.101 216.090,45.202 216.166,45.238 217.352 C 45.259 218.038,45.315 220.279,45.363 222.330 C 45.464 226.629,45.580 226.785,48.688 226.794 L 50.776 226.800 50.888 231.900 L 51.000 237.000 53.500 237.119 L 56.000 237.238 56.060 240.919 C 56.093 242.944,56.085 245.074,56.041 245.652 C 55.922 247.226,56.951 248.000,59.158 248.000 L 61.060 248.000 61.430 250.500 L 61.800 253.000 64.249 253.118 L 66.699 253.236 66.879 257.608 C 67.095 262.846,67.521 263.600,70.262 263.600 C 71.982 263.600,72.000 263.615,72.000 265.000 C 72.000 265.770,72.155 266.400,72.345 266.400 C 72.534 266.400,72.604 266.847,72.499 267.393 C 72.276 268.561,73.497 269.200,75.951 269.200 L 77.449 269.200 77.278 277.300 C 77.184 281.755,77.076 285.437,77.038 285.482 C 77.001 285.527,76.257 285.594,75.385 285.630 C 72.883 285.736,72.302 285.982,72.526 286.839 C 72.636 287.257,72.562 287.600,72.363 287.600 C 72.160 287.600,72.000 290.661,72.000 294.548 L 72.000 301.496 70.159 301.703 C 67.351 302.020,67.089 302.488,66.880 307.566 L 66.699 311.964 64.249 312.082 L 61.800 312.200 61.437 314.900 C 61.060 317.701,60.984 317.783,58.922 317.619 C 57.417 317.499,56.296 318.346,56.506 319.445 C 56.609 319.981,56.537 320.515,56.346 320.633 C 56.156 320.751,56.000 322.457,56.000 324.424 L 56.000 328.000 53.400 328.000 L 50.800 328.000 50.800 330.548 L 50.800 333.096 48.900 333.368 C 47.855 333.518,46.697 333.643,46.327 333.647 C 45.957 333.651,45.651 333.957,45.647 334.327 C 45.643 334.697,45.520 335.835,45.373 336.855 L 45.106 338.709 43.160 338.968 C 40.966 339.259,40.211 340.130,40.492 342.046 C 40.585 342.681,40.513 343.200,40.331 343.200 C 40.149 343.200,40.000 344.550,40.000 346.200 L 40.000 349.200 38.033 349.200 C 34.937 349.200,34.800 349.329,34.800 352.224 L 34.800 354.762 32.300 354.881 L 29.800 355.000 29.543 357.400 C 29.124 361.322,29.168 369.193,29.614 370.026 C 30.006 370.758,30.546 370.800,39.614 370.800 C 50.794 370.800,50.800 370.798,50.800 367.200 L 50.800 365.200 61.400 365.200 C 68.200 365.200,72.000 365.057,72.000 364.800 C 72.000 364.580,72.464 364.400,73.031 364.400 C 74.357 364.400,76.400 362.384,76.400 361.075 L 76.400 360.088 86.638 359.941 C 98.274 359.774,98.400 359.735,98.400 356.356 L 98.400 354.800 106.780 354.800 C 115.680 354.800,119.038 354.391,119.353 353.271 C 119.457 352.902,119.661 351.835,119.806 350.900 L 120.070 349.200 122.635 349.200 C 124.078 349.200,125.200 349.025,125.200 348.800 C 125.200 348.580,125.572 348.400,126.026 348.400 C 127.821 348.400,129.372 347.029,129.759 345.100 C 129.972 344.039,130.070 344.000,132.510 344.000 C 135.596 344.000,136.000 343.643,136.000 340.920 L 136.000 338.800 140.600 338.800 C 146.175 338.800,146.800 338.437,146.800 335.200 L 146.800 333.200 150.100 333.198 C 155.774 333.194,157.186 332.302,157.198 328.718 C 157.200 328.155,157.670 328.016,159.900 327.918 L 162.600 327.800 162.719 325.300 L 162.838 322.800 167.539 322.800 C 173.049 322.800,173.200 322.713,173.200 319.520 L 173.200 317.200 220.571 317.200 C 273.967 317.200,269.200 317.517,269.200 313.971 L 269.200 312.000 278.350 312.000 C 290.556 312.000,290.800 311.921,290.800 307.940 L 290.800 306.800 296.500 306.790 C 305.080 306.776,306.069 306.403,306.582 302.982 L 306.849 301.200 311.545 301.200 C 317.001 301.200,317.200 301.092,317.200 298.120 L 317.200 296.000 321.800 296.000 C 327.291 296.000,328.000 295.611,328.000 292.600 L 328.000 290.800 330.300 290.794 C 335.749 290.779,337.799 289.773,338.234 286.900 L 338.491 285.200 340.765 285.200 C 343.573 285.200,344.000 284.796,344.000 282.139 L 344.000 280.038 346.500 279.919 L 349.000 279.800 349.119 277.300 L 349.238 274.800 351.519 274.798 C 357.724 274.791,359.600 273.892,359.600 270.924 L 359.600 269.200 361.600 269.200 C 364.308 269.200,365.200 268.308,365.200 265.600 L 365.200 263.600 366.924 263.600 C 369.892 263.600,370.791 261.724,370.798 255.519 L 370.800 253.238 373.300 253.119 L 375.800 253.000 375.919 250.500 L 376.038 248.000 377.845 248.000 C 381.125 248.000,381.200 247.870,381.200 242.186 L 381.200 237.200 383.367 237.200 C 386.919 237.200,386.800 237.389,386.800 231.757 L 386.800 226.800 388.920 226.800 C 391.904 226.800,392.000 226.619,392.000 220.966 L 392.000 216.092 394.222 215.815 C 397.412 215.416,397.226 217.858,397.106 177.943 C 396.987 138.108,397.297 141.617,393.900 141.606 L 392.000 141.600 392.000 136.833 C 392.000 130.677,392.058 130.800,389.157 130.800 L 386.800 130.800 386.800 125.849 C 386.800 120.804,386.522 119.834,385.130 120.023 C 384.838 120.063,383.840 120.073,382.912 120.047 L 381.224 120.000 381.112 114.900 L 381.000 109.800 379.400 109.693 C 376.084 109.472,376.000 109.407,376.000 107.072 C 376.000 104.430,375.569 104.000,372.920 104.000 L 370.800 104.000 370.798 101.900 C 370.791 95.967,369.902 94.026,367.041 93.703 C 365.212 93.497,365.200 93.486,365.200 91.974 C 365.200 89.498,364.564 88.275,363.393 88.499 C 362.847 88.604,362.400 88.534,362.400 88.345 C 362.400 88.155,361.770 88.000,361.000 88.000 C 359.615 88.000,359.600 87.982,359.600 86.262 C 359.600 83.521,358.846 83.095,353.608 82.879 L 349.236 82.699 349.118 80.249 L 349.000 77.800 346.500 77.430 L 344.000 77.060 344.000 75.158 C 344.000 72.628,343.327 72.000,340.617 72.000 L 338.491 72.000 338.220 70.192 C 337.838 67.649,336.947 67.177,332.014 66.905 L 328.000 66.684 328.000 65.168 C 328.000 62.386,327.452 61.600,325.510 61.598 C 324.569 61.596,322.323 61.480,320.518 61.340 L 317.236 61.084 317.118 58.842 C 317.021 56.998,316.876 56.610,316.304 56.655 C 315.922 56.685,315.699 56.563,315.810 56.384 C 315.920 56.205,313.999 56.046,311.540 56.031 C 306.355 55.999,306.894 56.231,306.446 53.832 C 305.914 50.989,305.989 51.015,298.033 50.868 L 290.904 50.737 290.662 48.693 C 290.263 45.327,290.360 45.346,273.100 45.227 L 269.200 45.200 269.194 43.300 C 269.191 42.255,269.017 41.130,268.809 40.800 C 268.369 40.105,170.000 39.660,170.000 40.353 M222.800 52.000 C 223.307 52.440,223.866 52.800,224.042 52.800 C 224.665 52.800,225.213 55.871,225.611 61.600 C 226.029 67.624,226.634 70.251,227.746 70.874 C 229.661 71.945,230.702 76.450,230.965 84.800 C 231.214 92.673,231.506 94.052,233.328 95.952 C 235.190 97.893,235.929 101.313,236.443 110.366 C 236.860 117.714,236.877 117.781,239.300 121.245 C 240.125 122.424,240.800 123.822,240.800 124.351 C 240.800 125.321,242.346 128.806,242.771 128.793 C 242.897 128.789,243.420 127.754,243.934 126.493 C 245.290 123.167,245.273 123.190,247.009 122.225 C 248.265 121.526,248.712 120.967,249.133 119.570 C 249.918 116.964,250.848 115.236,252.217 113.841 C 253.701 112.328,254.800 110.629,254.800 109.846 C 254.800 107.331,258.087 105.034,260.120 106.129 C 262.923 107.638,263.012 108.169,262.903 122.770 C 262.798 136.820,263.566 144.863,264.613 140.690 C 264.978 139.235,266.387 138.297,269.900 137.172 C 271.495 136.661,272.800 136.014,272.800 135.735 C 272.800 135.456,273.205 135.013,273.700 134.751 C 274.195 134.488,274.813 133.973,275.074 133.606 C 275.335 133.239,276.568 132.711,277.816 132.431 C 280.410 131.851,282.800 130.577,282.800 129.775 C 282.800 129.474,283.205 129.015,283.700 128.754 C 284.195 128.494,284.690 128.169,284.800 128.032 C 285.282 127.434,287.368 126.800,288.857 126.800 C 290.682 126.800,292.794 125.740,292.813 124.814 C 292.869 122.096,297.282 121.319,300.028 123.543 C 302.153 125.263,300.317 134.545,297.272 137.481 C 295.731 138.967,294.800 140.857,294.800 142.502 C 294.800 143.892,293.194 146.804,291.699 148.127 C 290.880 148.851,289.616 151.890,288.807 155.076 C 288.544 156.114,288.097 156.842,287.634 156.989 C 287.223 157.120,286.794 157.581,286.681 158.013 C 286.567 158.446,286.228 158.800,285.926 158.800 C 285.579 158.800,285.105 159.868,284.638 161.700 C 283.707 165.350,283.011 166.756,281.551 167.931 C 280.914 168.444,279.922 169.859,279.346 171.077 C 278.770 172.295,277.533 174.091,276.597 175.067 L 274.897 176.842 231.148 176.611 C 155.184 176.210,149.522 176.035,147.305 174.032 C 146.917 173.681,146.105 173.174,145.499 172.905 C 143.741 172.125,142.803 170.182,142.801 167.320 C 142.799 163.184,142.124 160.920,140.399 159.260 C 138.507 157.439,137.722 154.865,137.180 148.695 C 136.648 142.645,136.589 142.456,134.614 140.509 C 130.728 136.678,131.537 124.452,135.776 122.969 C 136.354 122.767,136.896 123.074,137.908 124.178 C 139.616 126.042,141.743 126.800,145.270 126.800 C 148.371 126.800,149.903 127.398,151.826 129.358 C 153.126 130.683,155.607 131.616,160.000 132.431 C 163.090 133.004,164.461 133.718,165.345 135.215 C 166.114 136.516,168.078 137.362,168.756 136.684 C 169.059 136.381,169.200 132.874,169.200 125.646 C 169.200 115.844,169.260 114.928,170.006 113.388 C 171.655 109.980,175.579 109.966,177.407 113.361 C 177.952 114.373,178.828 115.102,180.438 115.884 C 182.339 116.808,182.795 117.242,183.284 118.592 C 183.711 119.771,184.184 120.307,185.056 120.600 C 187.044 121.269,188.367 122.346,188.968 123.786 C 189.384 124.780,190.099 125.439,191.572 126.186 C 192.689 126.752,193.825 127.571,194.097 128.007 C 194.692 128.959,195.587 128.998,198.303 128.192 C 200.736 127.469,200.670 127.640,200.997 121.200 C 201.523 110.836,202.247 107.382,204.268 105.599 C 205.897 104.162,206.800 99.757,206.800 93.246 C 206.800 87.378,208.177 82.496,210.169 81.301 C 211.008 80.798,211.563 78.541,211.798 74.676 C 211.921 72.654,212.232 68.754,212.490 66.010 L 212.959 61.020 214.773 59.210 C 215.770 58.214,217.062 56.396,217.643 55.170 C 219.277 51.721,221.151 50.570,222.800 52.000 M192.811 180.469 C 193.587 180.761,194.656 181.405,195.186 181.900 C 195.717 182.395,196.276 182.800,196.429 182.800 C 197.296 182.800,197.064 184.597,196.069 185.593 C 193.242 188.419,193.152 196.876,195.933 198.364 C 197.255 199.071,198.790 205.113,198.797 209.638 C 198.802 212.436,199.553 212.924,202.821 212.250 C 206.514 211.489,208.936 212.355,210.257 214.911 C 211.491 217.297,208.222 224.416,205.656 224.929 C 205.064 225.047,203.504 225.548,202.190 226.042 L 199.800 226.940 201.600 227.742 C 203.042 228.385,204.303 228.550,207.944 228.572 L 212.488 228.600 213.595 229.926 C 214.222 230.678,214.794 231.938,214.914 232.836 C 215.031 233.708,215.476 235.127,215.903 235.990 C 216.330 236.854,216.547 237.704,216.385 237.880 C 216.054 238.239,214.800 243.122,214.800 244.051 C 214.800 245.006,212.748 246.682,210.921 247.220 C 209.998 247.492,208.475 248.408,207.537 249.257 C 205.421 251.172,204.887 251.117,202.229 248.708 C 201.806 248.324,201.176 247.936,200.829 247.847 C 200.483 247.758,199.347 247.464,198.305 247.192 C 195.069 246.350,190.800 241.677,190.800 238.977 C 190.800 237.241,189.553 234.438,188.241 233.223 C 187.624 232.652,186.862 231.202,186.409 229.736 C 185.983 228.356,185.352 226.680,185.007 226.013 L 184.379 224.800 179.390 224.733 C 176.645 224.697,174.112 224.652,173.760 224.633 C 172.988 224.593,172.190 226.844,171.849 230.029 C 171.546 232.854,170.739 234.467,169.318 235.090 C 167.788 235.762,167.095 236.998,166.775 239.626 C 166.261 243.854,163.687 246.301,159.222 246.806 C 157.780 246.969,155.504 247.322,154.164 247.591 C 152.105 248.003,151.341 247.980,149.232 247.439 C 147.859 247.088,145.247 246.800,143.428 246.800 C 139.773 246.800,136.800 245.366,136.800 243.603 C 136.800 243.096,136.332 242.601,135.500 242.227 C 132.491 240.875,131.974 239.453,131.978 232.538 C 131.982 225.695,132.449 224.086,134.776 222.908 C 136.107 222.234,136.661 221.657,137.042 220.548 C 137.989 217.794,139.716 217.200,146.768 217.200 C 152.784 217.200,154.195 216.870,154.570 215.376 C 154.926 213.957,156.722 212.951,159.800 212.446 C 163.090 211.907,167.670 210.785,168.105 210.412 C 168.273 210.268,168.699 208.001,169.052 205.375 C 169.773 200.018,170.751 197.351,172.197 196.801 C 173.905 196.152,174.424 194.779,174.793 189.934 C 175.323 182.956,176.140 181.620,180.641 180.367 C 183.803 179.487,190.346 179.542,192.811 180.469 M262.800 180.411 C 265.338 180.806,267.584 182.382,267.607 183.785 C 267.617 184.377,269.175 185.766,270.724 186.564 C 271.585 187.007,272.303 187.832,272.778 188.923 C 273.180 189.845,274.350 191.470,275.379 192.533 L 277.249 194.466 276.971 196.733 C 276.645 199.391,276.177 200.800,275.622 200.800 C 275.155 200.800,273.428 204.437,273.030 206.259 C 272.706 207.740,271.822 208.632,270.302 209.012 C 269.698 209.162,268.708 209.910,268.102 210.674 C 265.279 214.228,264.986 214.400,261.731 214.400 C 258.912 214.400,257.551 214.038,256.603 213.037 C 255.799 212.187,254.800 210.421,254.800 209.848 C 254.800 209.529,253.968 208.536,252.952 207.641 C 249.411 204.525,249.337 199.186,252.803 196.998 C 253.672 196.449,254.742 195.297,255.181 194.438 C 255.998 192.837,256.983 191.916,259.161 190.719 C 261.773 189.283,260.068 188.384,255.460 188.767 C 252.590 189.005,252.229 189.135,251.260 190.271 C 249.782 192.005,248.601 192.617,245.600 193.207 C 242.479 193.819,241.745 194.386,241.069 196.704 C 240.615 198.261,239.158 199.623,237.309 200.219 C 237.259 200.235,237.051 201.426,236.848 202.864 C 236.374 206.212,235.160 208.595,233.496 209.448 C 232.783 209.813,232.063 210.312,231.896 210.556 C 231.181 211.599,232.613 216.489,233.762 216.930 C 234.453 217.195,235.337 220.185,236.163 225.052 C 236.912 229.462,237.384 230.800,238.190 230.800 C 238.526 230.800,238.800 231.065,238.800 231.390 C 238.800 231.714,239.297 232.237,239.905 232.551 C 240.513 232.866,241.957 234.124,243.114 235.347 C 246.128 238.534,247.376 239.039,250.891 238.495 C 254.103 237.997,255.037 237.425,253.565 236.857 C 248.786 235.013,248.507 225.144,253.179 223.209 C 253.875 222.920,254.804 221.981,255.403 220.959 C 258.035 216.467,265.782 216.403,270.751 220.831 C 271.966 221.914,273.190 222.800,273.471 222.800 C 273.752 222.800,274.276 223.250,274.637 223.800 C 274.997 224.350,275.546 224.800,275.856 224.800 C 277.780 224.800,277.765 231.857,275.837 233.843 C 275.087 234.615,274.068 236.271,273.572 237.523 C 272.425 240.416,272.344 240.515,270.585 241.151 C 268.889 241.764,268.000 242.567,267.308 244.106 C 266.685 245.495,264.574 246.797,262.943 246.799 C 261.242 246.801,255.493 247.991,255.020 248.440 C 254.534 248.901,252.800 248.911,252.800 248.453 C 252.800 247.662,248.063 246.800,243.720 246.800 C 241.047 246.800,238.838 246.601,238.146 246.299 C 236.434 245.549,234.800 244.365,234.800 243.873 C 234.800 243.186,232.312 240.800,231.596 240.800 C 230.833 240.800,228.800 238.787,228.800 238.032 C 228.800 237.435,226.063 234.807,225.422 234.787 C 224.588 234.762,222.928 231.316,222.196 228.090 C 221.785 226.280,221.303 224.800,221.125 224.800 C 220.946 224.800,220.800 224.613,220.800 224.384 C 220.800 224.155,220.408 223.438,219.930 222.790 C 219.306 221.947,218.913 220.503,218.544 217.706 C 217.594 210.504,217.923 208.166,220.241 205.650 C 221.433 204.357,222.452 201.794,222.964 198.800 C 223.219 197.305,225.259 194.800,226.220 194.800 C 226.539 194.800,226.800 194.502,226.800 194.138 C 226.800 193.087,228.545 191.077,230.569 189.798 C 231.592 189.151,232.521 188.257,232.634 187.811 C 232.910 186.716,235.206 185.273,237.172 184.958 C 238.127 184.805,238.867 184.438,238.999 184.051 C 239.563 182.397,241.299 181.068,243.535 180.578 C 246.328 179.966,259.224 179.854,262.800 180.411 M178.533 204.866 C 177.693 205.927,177.539 210.374,178.297 211.657 C 179.365 213.464,184.523 213.277,184.734 211.424 C 184.964 209.406,184.413 206.800,183.756 206.800 C 183.429 206.800,182.765 206.350,182.281 205.800 C 181.229 204.605,179.149 204.086,178.533 204.866 " stroke="none" fill="#042c64" fill-rule="evenodd"></path></g></svg>